<svg id="Layer_1" data-name="Layer 1" xmlns="http://www.w3.org/2000/svg" viewBox="0 0 146.89 69.55"><defs><style>.cls-1,.cls-2{fill:#fff;}.cls-1{fill-rule:evenodd;}</style></defs><title>logo-shipit-light</title><path class="cls-1" d="M85.34,13.92s-17.54,0-24.05-8c0,0,1.73,9,7.44,11.56,0,0-3.85.4-5.58-1.2,0,0,.27,5.18,6.64,7.71l-4.39.4s10.5,11.69,19-3.32c0,0,3.06-4.78,1.46-6.64Z" transform="translate(-3.05 -5.95)"/><path class="cls-2" d="M13.06,32.09c0-2,2.5-2.75,4-2.75,4,0,6,3.75,9.76,3.75,1.5,0,4.75-1,4.75-4.25,0-6.76-10.76-8-14-8-6,0-14,3-14,11.76,0,14.26,19.27,10,19.27,16,0,2.75-3,3.5-5.25,3.5-6.51,0-5.76-4.5-10.26-4.5a4.14,4.14,0,0,0-4.25,4.5c0,6.76,11,8.76,14.51,8.76,5.51,0,15.26-3,15.26-12.51C32.83,34.84,13.06,37.09,13.06,32.09Z" transform="translate(-3.05 -5.95)"/><rect class="cls-2" x="112.92" y="14.37" width="9.45" height="8.4" rx="3.97" ry="3.97"/><path class="cls-2" d="M146.44,51.85c-1.5-.5-2.5.25-3.75-1V41.34c3.5,0,7.26-.5,7.26-4.5,0-1.25-1-4-3.5-4.25-1.5-.25-2.75.25-3.75-.5.25-2.25-.5-6-3-6.76-.5-.25-1,0-1.5,0-2.75,0-5.25,1.25-4.75,5v1.25c-1,1.75-4,.75-4.75,3.75v1.5c0,2.75,1,3.75,4.75,4.75V52.85a13.57,13.57,0,0,0,1.5,4c3,3.75,5.25,3.5,8,3.5,2.25,0,6.26.25,6.26-4.25A4.13,4.13,0,0,0,146.44,51.85Z" transform="translate(-3.05 -5.95)"/><path class="cls-2" d="M98.14,32.09a28.79,28.79,0,0,0-5,1c-.5,0-.75.75-1.5.75s-2.75-1.75-4.25-1.75c-1.75,0-4.25.75-4.5,3.5V73c0,.89.18,1.45.8,1.79.16.09.34.12.5.21.62.34,7.67,1.73,8-2.36V59.86a.49.49,0,0,1,.5-.5,21.65,21.65,0,0,0,5.76,1.5c8,0,13.51-7.26,13.51-14.51S106.4,32.09,98.14,32.09Zm-1,19.77c-3.5,0-5.25-2.25-5.25-5.51,0-3.5,2-5.5,5.25-5.5a5.24,5.24,0,0,1,5.51,5.5A5.37,5.37,0,0,1,97.14,51.85Z" transform="translate(-3.05 -5.95)"/><path class="cls-2" d="M65.44,46.42v-.22a10.76,10.76,0,0,0-1.74-7l-.35-.53a16.69,16.69,0,0,0-5.06-4.84c-5.76-2.77-12.26.43-12.26.43V34c-.32,0-.15,0-.37-.25v-11c0-2.75-3.25-3.5-4.75-3.5-1.75,0-3.58-.39-4.5,3.25v35.4a2.12,2.12,0,0,0,.28,1.67,1.8,1.8,0,0,0,.35.37c2.44,1,5.86,1.25,8-.19a2.9,2.9,0,0,0,.32-.37,3.07,3.07,0,0,0,.26-.43V45.28c0-2.5,2.75-4.25,5-4.25,2.5,0,4.91.69,5.51,4.25V57.45c0,.11,0,.22,0,.32-.11,1.25,0,2.17.82,2.56a6.18,6.18,0,0,0,1,.36c2.92.36,4.4.64,6.77-.45a1.37,1.37,0,0,0,.35-.33c.1-.11.23-.51.31-.64V47.22" transform="translate(-3.05 -5.95)"/><path class="cls-2" d="M124.42,32.75a1.49,1.49,0,0,0-.38-.21,7.9,7.9,0,0,0-1.05-.19l-.73-.11c-5.17-.14-6.09,0-6.23,2.38q0,.2,0,.44V46.18h0V57.84c0,.86.06,1.6.62,2a1.49,1.49,0,0,0,.38.21,7.91,7.91,0,0,0,1.05.19l.73.11c5.17.14,6.09,0,6.23-2.38q0-.2,0-.44V46.44h0V34.78C125,33.92,125,33.18,124.42,32.75Z" transform="translate(-3.05 -5.95)"/><path class="cls-2" d="M78.52,32.75a1.49,1.49,0,0,0-.38-.21,7.9,7.9,0,0,0-1.05-.19l-.73-.11c-5.17-.14-6.09,0-6.23,2.38q0,.2,0,.44V46.18h0V57.84c0,.86.06,1.6.62,2a1.49,1.49,0,0,0,.38.21,7.91,7.91,0,0,0,1.05.19l.73.11c5.17.14,6.09,0,6.23-2.38q0-.2,0-.44V46.44h0V34.78C79.15,33.92,79.09,33.18,78.52,32.75Z" transform="translate(-3.05 -5.95)"/></svg>