<?xml version="1.0" ?><svg id="Layer_1" style="enable-background:new 0 0 735 161;" version="1.1" viewBox="0 0 735 161" xml:space="preserve" xmlns="http://www.w3.org/2000/svg" xmlns:xlink="http://www.w3.org/1999/xlink"><style type="text/css">
	.st0{fill:#9B5C8F;}
	.st1{fill:#FFFFFF;}
</style><g><path class="st0" d="M27.7,9.3h199.1c12.6,0,22.8,10.2,22.8,22.8v76c0,12.6-10.2,22.8-22.8,22.8h-71.4l9.8,24l-43.1-24H27.8   C15.2,130.9,5,120.7,5,108.1v-76C4.9,19.6,15.1,9.3,27.7,9.3z"/><path class="st1" d="M17.2,30c1.4-1.9,3.5-2.9,6.3-3.1c5.1-0.4,8,2,8.7,7.2c3.1,20.9,6.5,38.6,10.1,53.1l21.9-41.7   c2-3.8,4.5-5.8,7.5-6c4.4-0.3,7.1,2.5,8.2,8.4c2.5,13.3,5.7,24.6,9.5,34.2c2.6-25.4,7-43.7,13.2-55c1.5-2.8,3.7-4.2,6.6-4.4   c2.3-0.2,4.4,0.5,6.3,2c1.9,1.5,2.9,3.4,3.1,5.7c0.1,1.8-0.2,3.3-1,4.8c-3.9,7.2-7.1,19.3-9.7,36.1c-2.5,16.3-3.4,29-2.8,38.1   c0.2,2.5-0.2,4.7-1.2,6.6c-1.2,2.2-3,3.4-5.3,3.6c-2.6,0.2-5.3-1-7.9-3.7c-9.3-9.5-16.7-23.7-22.1-42.6   c-6.5,12.8-11.3,22.4-14.4,28.8c-5.9,11.3-10.9,17.1-15.1,17.4c-2.7,0.2-5-2.1-7-6.9C27,99.5,21.5,74.2,15.6,36.7   C15.3,34.1,15.8,31.8,17.2,30z"/><path class="st1" d="M232.2,45.7c-3.6-6.3-8.9-10.1-16-11.6c-1.9-0.4-3.7-0.6-5.4-0.6c-9.6,0-17.4,5-23.5,15   c-5.2,8.5-7.8,17.9-7.8,28.2c0,7.7,1.6,14.3,4.8,19.8c3.6,6.3,8.9,10.1,16,11.6c1.9,0.4,3.7,0.6,5.4,0.6c9.7,0,17.5-5,23.5-15   c5.2-8.6,7.8-18,7.8-28.3C237,57.6,235.4,51.1,232.2,45.7L232.2,45.7z M219.6,73.4c-1.4,6.6-3.9,11.5-7.6,14.8   c-2.9,2.6-5.6,3.7-8.1,3.2c-2.4-0.5-4.4-2.6-5.9-6.5c-1.2-3.1-1.8-6.2-1.8-9.1c0-2.5,0.2-5,0.7-7.3c0.9-4.1,2.6-8.1,5.3-11.9   c3.3-4.9,6.8-6.9,10.4-6.2c2.4,0.5,4.4,2.6,5.9,6.5c1.2,3.1,1.8,6.2,1.8,9.1C220.3,68.6,220,71.1,219.6,73.4L219.6,73.4z"/><path class="st1" d="M169.5,45.7c-3.6-6.3-9-10.1-16-11.6c-1.9-0.4-3.7-0.6-5.4-0.6c-9.6,0-17.4,5-23.5,15   c-5.2,8.5-7.8,17.9-7.8,28.2c0,7.7,1.6,14.3,4.8,19.8c3.6,6.3,8.9,10.1,16,11.6c1.9,0.4,3.7,0.6,5.4,0.6c9.7,0,17.5-5,23.5-15   c5.2-8.6,7.8-18,7.8-28.3C174.3,57.6,172.7,51.1,169.5,45.7L169.5,45.7z M156.9,73.4c-1.4,6.6-3.9,11.5-7.6,14.8   c-2.9,2.6-5.6,3.7-8.1,3.2c-2.4-0.5-4.4-2.6-5.9-6.5c-1.2-3.1-1.8-6.2-1.8-9.1c0-2.5,0.2-5,0.7-7.3c0.9-4.1,2.6-8.1,5.3-11.9   c3.3-4.9,6.8-6.9,10.4-6.2c2.4,0.5,4.4,2.6,5.9,6.5c1.2,3.1,1.8,6.2,1.8,9.1C157.6,68.6,157.4,71.1,156.9,73.4L156.9,73.4z"/><g><g><path d="M274.9,44.8c-6.7,6.6-10,15-10,25.2c0,10.9,3.3,19.8,9.9,26.5s15.2,10.1,25.9,10.1c3.1,0,6.6-0.5,10.4-1.6V88.8     c-3.5,1-6.5,1.5-9.1,1.5c-5.3,0-9.5-1.8-12.7-5.3c-3.2-3.6-4.8-8.4-4.8-14.5c0-5.7,1.6-10.4,4.7-14c3.2-3.7,7.1-5.5,11.9-5.5     c3.1,0,6.4,0.5,10,1.5V36.3c-3.3-0.9-7-1.3-10.9-1.3C290,34.9,281.6,38.2,274.9,44.8z M344.3,34.9c-9.2,0-16.4,3.1-21.6,9.2     S315,58.8,315,69.8c0,11.9,2.6,21,7.7,27.3s12.6,9.5,22.4,9.5c9.5,0,16.8-3.2,21.9-9.5s7.7-15.2,7.7-26.6s-2.6-20.2-7.8-26.4     C361.6,38,354.1,34.9,344.3,34.9z M352.2,86.9c-1.8,2.8-4.5,4.2-7.9,4.2c-3.2,0-5.6-1.4-7.3-4.2c-1.7-2.8-2.5-8.4-2.5-16.9     c0-13.1,3.3-19.6,10-19.6c7,0,10.6,6.6,10.6,19.9C355,78.5,354,84.1,352.2,86.9z M424.1,36.8l-3.6,15.3c-0.9,3.9-1.8,7.9-2.6,12     l-2,10.6c-1.9-10.6-4.5-23.2-7.8-37.9h-23.2l-8.7,68.1h17.4l4.7-46.9l11.9,46.9h12.4L434,58.1l4.9,46.8h18.2l-9.2-68.1     L424.1,36.8L424.1,36.8z M507.4,36.8l-3.6,15.3c-0.9,3.9-1.8,7.9-2.6,12l-2,10.6c-1.9-10.6-4.5-23.2-7.8-37.9h-23.2l-8.7,68.1     h17.4l4.7-46.9l11.9,46.9h12.4l11.3-46.8l4.9,46.8h18.2l-9.2-68.1H507.4z M564,78h16.3V63.9H564V51.4h18.8V36.9h-37.2V105h37.3     V90.5H564V78z M634.7,67.2c1.9-3.1,2.9-6.3,2.9-9.6c0-6.4-2.5-11.5-7.5-15.2s-11.9-5.6-20.5-5.6h-21.4v68.1h18.4v-31h0.3l14.9,31     h19.4l-14.7-30.7C630,72.6,632.8,70.3,634.7,67.2z M606.5,66.1V49.9c4.4,0.1,7.5,0.8,9.4,2.2c1.9,1.4,2.8,3.6,2.8,6.8     C618.7,63.6,614.6,66,606.5,66.1z M648.4,44.8c-6.7,6.6-10,15-10,25.2c0,10.9,3.3,19.8,9.9,26.5c6.6,6.7,15.2,10.1,25.9,10.1     c3.1,0,6.6-0.5,10.4-1.6V88.8c-3.5,1-6.5,1.5-9.1,1.5c-5.3,0-9.5-1.8-12.7-5.3c-3.2-3.6-4.8-8.4-4.8-14.5c0-5.7,1.6-10.4,4.7-14     c3.2-3.7,7.1-5.5,11.9-5.5c3.1,0,6.4,0.5,10,1.5V36.3c-3.3-0.9-7-1.3-10.9-1.3C663.6,34.9,655.1,38.2,648.4,44.8z M708.1,90.3     V77.9h16.3V63.8h-16.3V51.3H727V36.8h-37.2v68.1h37.3V90.4h-19V90.3z"/></g></g></g></svg>