<svg id="Capa_1" data-name="Capa 1" xmlns="http://www.w3.org/2000/svg" viewBox="0 0 35.65 44.56"><title>ahorro</title><path d="M25.47,30.06l4.07-15.2A15.27,15.27,0,1,0,40.3,26.09Z" transform="translate(-7.65 -2.72)" style="fill:#00c2de"/><path d="M38,16.83l1.55-1.55a1.27,1.27,0,0,0-1.79-1.79L36,15.22a18,18,0,0,0-9.28-3.4V10.21h3A1.31,1.31,0,0,0,31,8.91V4a1.31,1.31,0,0,0-1.3-1.3H21.2A1.31,1.31,0,0,0,19.9,4V8.85a1.31,1.31,0,0,0,1.3,1.3h3v1.61A17.83,17.83,0,1,0,38,16.83ZM22.5,7.55V5.26h5.94V7.55Zm3,37.2A15.23,15.23,0,1,1,40.7,29.52,15.21,15.21,0,0,1,25.47,44.74Z" transform="translate(-7.65 -2.72)" style="fill:#484a7d"/></svg>