<svg id="Capa_1" data-name="Capa 1" xmlns="http://www.w3.org/2000/svg" viewBox="0 0 26.71 26.71"><defs><style>.cls-1{fill:#fff;}</style></defs><title>api</title><path class="cls-1" d="M27.89,20.57,22.62,17.9l5-2.58c.16-.08.16-.22,0-.3L22,12.18,27.9,9.13a.77.77,0,0,0,0-1.41L16.36,1.88a1.32,1.32,0,0,0-.59-.13,1.3,1.3,0,0,0-.54.11L2.13,8a.76.76,0,0,0,0,1.41l6.3,3.1-6,2.82c-.16.08-.16.2,0,.28l5.34,2.63L2.13,20.85a.76.76,0,0,0,0,1.41l12.36,6.08a1.27,1.27,0,0,0,.56.12,1.3,1.3,0,0,0,.59-.13L27.9,22a.77.77,0,0,0,0-1.41ZM15.74,3h.06L26.53,8.43,15.07,14.36h0L3.54,8.72Zm-.67,24.2h0L3.55,21.57,9,19l5.5,2.71a1.34,1.34,0,0,0,1.14,0l5.82-3,5.08,2.57Z" transform="translate(-1.65 -1.75)"/></svg>