<svg id="Capa_1" data-name="Capa 1" xmlns="http://www.w3.org/2000/svg" viewBox="0 0 25 25.01"><title>buscar-precio</title><path d="M12.87,2.5A10.37,10.37,0,1,0,23.24,12.86a.61.61,0,0,0-1.22,0,9.14,9.14,0,1,1-.91-4,.61.61,0,1,0,1.1-.53A10.37,10.37,0,0,0,12.87,2.5Z" transform="translate(-2.5 -2.5)" style="fill:#484a7d"/><polygon points="20.11 8.49 23.55 11.94 22.69 12.8 20.11 10.21 17.52 12.8 16.66 11.94 20.11 8.49" style="fill:#484a7d"/><path d="M19.38,20.25l6,6,.86-.86-6-6,.86-.86,6,6a1.21,1.21,0,0,1,0,1.72l-.86.86a1.22,1.22,0,0,1-1.72,0l-6-6Z" transform="translate(-2.5 -2.5)" style="fill:#484a7d"/><path d="M13.48,8.45V7.37H12.26V8.51a2.4,2.4,0,0,0-2,2.3c0,2.63,4.14,2.23,4.14,4.08a1.32,1.32,0,0,1-1.48,1.26,3.37,3.37,0,0,1-2.18-.92l-.68.91a3.92,3.92,0,0,0,2.2,1.08v1.14h1.22V17.21a2.37,2.37,0,0,0,2.13-2.36c0-2.77-4.14-2.3-4.14-4.07A1.4,1.4,0,0,1,13,9.54a3,3,0,0,1,1.88.74l.54-1A3.38,3.38,0,0,0,13.48,8.45Z" transform="translate(-2.5 -2.5)" style="fill:#00c2de"/></svg>