<svg id="Capa_1" data-name="Capa 1" xmlns="http://www.w3.org/2000/svg" viewBox="0 0 19.47 19.47"><title>cotizar</title><path d="M13.72,1.61a.49.49,0,0,0-.5-.5H5.45a.49.49,0,0,0-.5.5V9.38a.49.49,0,0,0,.5.5h7.77a.49.49,0,0,0,.5-.5Zm-7.79.48h6.82V8.9H5.93Z" transform="translate(-4.96 -1.11)" style="fill:#fff"/><path d="M24.43,1.61a.49.49,0,0,0-.5-.5H16.16a.49.49,0,0,0-.5.5V9.38a.49.49,0,0,0,.5.5h7.77a.49.49,0,0,0,.5-.5Zm-7.79.48h6.82V8.9H16.64Z" transform="translate(-4.96 -1.11)" style="fill:#fff"/><path d="M13.72,12.32a.49.49,0,0,0-.5-.5H5.45a.49.49,0,0,0-.5.5v7.77a.49.49,0,0,0,.5.5h7.77a.49.49,0,0,0,.5-.5Zm-7.79.48h6.82v6.82H5.93Z" transform="translate(-4.96 -1.11)" style="fill:#fff"/><path d="M24.43,12.32a.49.49,0,0,0-.5-.5H16.16a.49.49,0,0,0-.5.5v7.77a.49.49,0,0,0,.5.5h7.77a.49.49,0,0,0,.5-.5Zm-7.79.48h6.82v6.82H16.64Z" transform="translate(-4.96 -1.11)" style="fill:#fff"/><path d="M8.85,5H6.9V6H8.85V7.93h1V6h1.95V5H9.82V3.06h-1Z" transform="translate(-4.96 -1.11)" style="fill:#fff"/><path d="M9.34,15.51,8,14.14l-.69.69L8.65,16.2,7.27,17.58l.69.69,1.38-1.38,1.38,1.38.69-.69L10,16.2l1.38-1.38-.69-.69Z" transform="translate(-4.96 -1.11)" style="fill:#fff"/><rect x="12.66" y="3.89" width="4.87" height="0.97" style="fill:#fff"/><rect x="12.66" y="14.6" width="4.87" height="0.97" style="fill:#fff"/><circle cx="15.09" cy="13.14" r="0.49" style="fill:#fff"/><circle cx="15.09" cy="17.04" r="0.49" style="fill:#fff"/></svg>