<?xml version="1.0" encoding="utf-8"?>
<!-- Generator: Adobe Illustrator 20.1.0, SVG Export Plug-In . SVG Version: 6.00 Build 0)  -->
<svg version="1.1" id="Capa_1" xmlns="http://www.w3.org/2000/svg" xmlns:xlink="http://www.w3.org/1999/xlink" x="0px" y="0px"
	 viewBox="0 0 150 150" style="enable-background:new 0 0 150 150;" xml:space="preserve">
<style type="text/css">
	.st0{fill:#D3D8EF;}
	.st1{fill:#FFFFFF;}
	.st2{fill:#F9F9F9;stroke:#D3D8EF;stroke-width:4;stroke-miterlimit:10;}
	.st3{fill:none;stroke:#F9F9F9;stroke-miterlimit:10;}
</style>
<title>datos-personales-off</title>
<g>
	<path class="st0" d="M100.1,96.2c-3.8-7-10.1-12.3-17.6-14.9c10-5.7,13.5-18.5,7.7-28.5s-18.5-13.5-28.5-7.7S48.3,63.6,54,73.5
		c1.9,3.3,4.6,6,7.9,7.8c-7.5,2.6-13.7,8-17.4,14.9c1,1.2,2.1,2.3,3.3,3.4c6.4-13.6,22.6-19.4,36.1-13c5.7,2.7,10.2,7.2,12.9,12.9
		C98,98.5,99.1,97.4,100.1,96.2z M72.1,79.6c-9.1,0-16.4-7.3-16.4-16.4S63,46.8,72.1,46.8s16.4,7.3,16.4,16.4
		C88.5,72.3,81.1,79.6,72.1,79.6L72.1,79.6z"/>
	<path class="st0" d="M102.1,100.7c15.5-16.5,14.6-42.5-1.9-58s-42.5-14.6-58,1.9c-14.8,15.8-14.8,40.4,0.1,56.2
		c1.1,1.2,2.3,2.4,3.6,3.4c15.2,12.7,37.3,12.6,52.5-0.1C99.8,103.1,101,101.9,102.1,100.7z M72.2,109.2c-9.1,0-17.8-3.4-24.5-9.5
		c-1.2-1.1-2.3-2.2-3.3-3.4c-13.1-15.3-11.2-38.4,4.1-51.4S86.9,33.6,100,49c11.6,13.6,11.6,33.5,0.1,47.2c-1,1.2-2.1,2.3-3.3,3.4
		C90.1,105.7,81.3,109.2,72.2,109.2L72.2,109.2z"/>
</g>
<circle class="st1" cx="98.3" cy="100" r="18.4"/>
<circle class="st2" cx="98.5" cy="100" r="20.2"/>
<g>
	<path class="st0" d="M110.5,96.5c0.9-0.9,0.9-2.3,0-3.2l-3.8-3.8c-0.4-0.4-1-0.7-1.6-0.7l0,0c-0.6,0-1.2,0.2-1.6,0.7l-12.6,12.6
		c-0.3,0.2-0.4,0.5-0.5,0.8l-1.4,6.1c-0.2,0.8,0.3,1.6,1.2,1.8c0.1,0,0.2,0,0.3,0c0.1,0,0.2,0,0.3,0l6.1-1.4
		c0.3-0.1,0.6-0.2,0.8-0.5L110.5,96.5z M95.9,106.7l-3.3,0.7l0.7-3.3l8.1-8.1l2.6,2.6L95.9,106.7z M106.2,96.5l-2.6-2.6l1.6-1.6
		l2.6,2.6L106.2,96.5z"/>
</g>
<circle class="st3" cx="74.4" cy="75.6" r="69.4"/>
</svg>
