<svg id="Capa_1" data-name="Capa 1" xmlns="http://www.w3.org/2000/svg" viewBox="0 0 145.35 145.35"><defs><style>.cls-1{fill:none;stroke:#00c2de;stroke-width:6px;opacity:0.35;}.cls-1,.cls-3{stroke-miterlimit:10;}.cls-2{fill:#484a7d;}.cls-3{fill:#00c2de;stroke:#484a7d;stroke-width:4px;}.cls-4{fill:#fff;}</style></defs><title>datos-personales</title><circle class="cls-1" cx="72.68" cy="72.68" r="69.68"/><path class="cls-2" d="M100.07,95.91A31.91,31.91,0,0,0,82.47,81a20.87,20.87,0,1,0-20.63.08A31.92,31.92,0,0,0,44.42,96a36.73,36.73,0,0,0,3.3,3.38,27.14,27.14,0,0,1,49.06-.1A36.76,36.76,0,0,0,100.07,95.91Zm-28-16.56a16.4,16.4,0,1,1,16.4-16.4A16.42,16.42,0,0,1,72.09,79.35Z" transform="translate(-2.32 -2.06)"/><path class="cls-2" d="M102.11,100.44a41,41,0,1,0-59.72.13A41.36,41.36,0,0,0,46,104a40.92,40.92,0,0,0,52.5-.12A41.36,41.36,0,0,0,102.11,100.44Zm-29.92,8.48a36.29,36.29,0,0,1-24.47-9.51A36.73,36.73,0,0,1,44.42,96a36.48,36.48,0,1,1,55.66-.11,36.76,36.76,0,0,1-3.29,3.39A36.3,36.3,0,0,1,72.19,108.91Z" transform="translate(-2.32 -2.06)"/><circle class="cls-3" cx="96.16" cy="97.65" r="20.17"/><path class="cls-4" d="M110.45,96.23a2.23,2.23,0,0,0,0-3.15l-3.75-3.75a2.21,2.21,0,0,0-1.57-.65h0a2.21,2.21,0,0,0-1.57.65L90.94,101.94a1.51,1.51,0,0,0-.5.82l-1.37,6.12a1.52,1.52,0,0,0,1.49,1.85,1.49,1.49,0,0,0,.33,0L97,109.34a1.51,1.51,0,0,0,.82-.5ZM95.91,106.47l-3.33.74.74-3.34,8.08-8.08L104,98.38Zm10.24-10.24-2.59-2.59,1.58-1.58,2.59,2.59Z" transform="translate(-2.32 -2.06)"/><circle class="cls-2" cx="130.35" cy="67.91" r="1.54"/><path class="cls-2" d="M124.63,81.56a1.2,1.2,0,0,1-1.2-1.2,6,6,0,0,1,6-6,1.2,1.2,0,0,1,0,2.39,3.59,3.59,0,0,0-3.59,3.59A1.2,1.2,0,0,1,124.63,81.56Z" transform="translate(-2.32 -2.06)"/><path class="cls-2" d="M119.85,76.77a1.2,1.2,0,0,1,0-2.39,3.59,3.59,0,0,0,3.59-3.59,1.2,1.2,0,1,1,2.39,0A6,6,0,0,1,119.85,76.77Z" transform="translate(-2.32 -2.06)"/><path class="cls-2" d="M124.63,81.56a1.2,1.2,0,0,1-1.2-1.2,3.59,3.59,0,0,0-3.59-3.59,1.2,1.2,0,0,1,0-2.39,6,6,0,0,1,6,6A1.2,1.2,0,0,1,124.63,81.56Z" transform="translate(-2.32 -2.06)"/><path class="cls-2" d="M129.42,76.77a6,6,0,0,1-6-6,1.2,1.2,0,1,1,2.39,0,3.59,3.59,0,0,0,3.59,3.59,1.2,1.2,0,0,1,0,2.39Z" transform="translate(-2.32 -2.06)"/><path class="cls-2" d="M44.42,29a1.2,1.2,0,0,1-1.2-1.2V25.41a1.2,1.2,0,1,1,2.39,0V27.8A1.2,1.2,0,0,1,44.42,29Z" transform="translate(-2.32 -2.06)"/><path class="cls-2" d="M44.42,38.57a1.2,1.2,0,0,1-1.2-1.2V35a1.2,1.2,0,1,1,2.39,0v2.39A1.2,1.2,0,0,1,44.42,38.57Z" transform="translate(-2.32 -2.06)"/><path class="cls-2" d="M44.42,32.59a1.19,1.19,0,1,1,.85-.35A1.26,1.26,0,0,1,44.42,32.59Z" transform="translate(-2.32 -2.06)"/><path class="cls-2" d="M40.83,32.59H38.43a1.2,1.2,0,0,1,0-2.39h2.39a1.2,1.2,0,0,1,0,2.39Z" transform="translate(-2.32 -2.06)"/><path class="cls-2" d="M50.4,32.59H48a1.2,1.2,0,0,1,0-2.39H50.4a1.2,1.2,0,0,1,0,2.39Z" transform="translate(-2.32 -2.06)"/></svg>