<svg id="Capa_1" data-name="Capa 1" xmlns="http://www.w3.org/2000/svg" viewBox="0 0 44.56 44.56"><title>dias</title><path d="M13.84,20H11.17a1.24,1.24,0,0,0,0,2.48h2.66a1.24,1.24,0,1,0,0-2.48Z" transform="translate(-3.44 -2.72)" style="fill:#00c2de"/><path d="M22.56,20H19.9a1.24,1.24,0,0,0,0,2.48h2.66a1.24,1.24,0,0,0,0-2.48Z" transform="translate(-3.44 -2.72)" style="fill:#00c2de"/><path d="M28.63,22.52h2.66a1.24,1.24,0,1,0,0-2.48H28.63a1.24,1.24,0,0,0,0,2.48Z" transform="translate(-3.44 -2.72)" style="fill:#00c2de"/><path d="M13.84,27.29H11.17a1.24,1.24,0,0,0,0,2.48h2.66a1.24,1.24,0,0,0,0-2.48Z" transform="translate(-3.44 -2.72)" style="fill:#00c2de"/><path d="M22.56,27.29H19.9a1.24,1.24,0,0,0,0,2.48h2.66a1.24,1.24,0,0,0,0-2.48Z" transform="translate(-3.44 -2.72)" style="fill:#00c2de"/><path d="M39,23.58V7.79a1.24,1.24,0,0,0-1.24-1.24H31.66V4a1.24,1.24,0,0,0-2.48,0v2.6H11V4A1.24,1.24,0,0,0,8.51,4v2.6H4.68A1.24,1.24,0,0,0,3.44,7.79v27A1.24,1.24,0,0,0,4.68,36H23.92A12.05,12.05,0,1,0,39,23.58ZM5.91,9h2.6v2.6a1.24,1.24,0,1,0,2.48,0V9h18.2v2.6a1.24,1.24,0,0,0,2.48,0V9h4.89v5.69H5.91Zm0,24.51V17.2H36.55v6.07H36A12,12,0,0,0,24.11,33.6H5.91Zm30,11.26a9.59,9.59,0,1,1,9.59-9.59A9.6,9.6,0,0,1,35.93,44.81Z" transform="translate(-3.44 -2.72)" style="fill:#484a7d"/><path d="M40.26,34.28H37.17V28.16a1.24,1.24,0,0,0-2.48,0v7.37a1.24,1.24,0,0,0,1.24,1.24h4.33a1.24,1.24,0,0,0,0-2.48Z" transform="translate(-3.44 -2.72)" style="fill:#484a7d;opacity:0.49"/></svg>