<svg id="Capa_1" data-name="Capa 1" xmlns="http://www.w3.org/2000/svg" viewBox="0 0 44.58 34.04"><title>empaque</title><polyline points="27.24 31.57 27.18 31.57 8.61 31.57 8.61 8.6 27.24 8.6 27.24 31.57" style="fill:#00c2de"/><path d="M23.82,34.59v1.92a1.24,1.24,0,0,0,2.48,0V34.59A1.23,1.23,0,1,0,28,32.86l-2.1-2.1a1.2,1.2,0,0,0-1.73,0l-2.1,2.1a1.23,1.23,0,1,0,1.73,1.73Z" transform="translate(-2.71 -7.98)" style="fill:#fff"/><path d="M46,8H37.25a1.22,1.22,0,0,0-.87.37l-5.26,5.26-5.2-5.32A1.48,1.48,0,0,0,25.06,8H4a1.22,1.22,0,0,0-.87,2.1L8.85,15.9V40.78A1.24,1.24,0,0,0,10.08,42H39.92a1.24,1.24,0,0,0,1.24-1.24V15.84L46.91,10A1.18,1.18,0,0,0,46,8ZM6.93,10.46H24.5l3.65,3.71H10.58Zm23,29.09H11.32v-23H30v23Zm8.79,0H32.37v-23h6.31Zm.74-25.44H34.16l3.65-3.71h5.26Z" transform="translate(-2.71 -7.98)" style="fill:#484a7d"/></svg>