<svg id="Capa_1" data-name="Capa 1" xmlns="http://www.w3.org/2000/svg" viewBox="0 0 111.63 83.86"><defs><style>.cls-1,.cls-3{fill:#d3d8ef;}.cls-1{isolation:isolate;}.cls-2{fill:#fff;}.cls-3{stroke:#d3d8ef;stroke-linecap:round;stroke-linejoin:round;stroke-width:2px;}</style></defs><title>empresa-off</title><path class="cls-1" d="M120.44,33.95h-93a3,3,0,0,0-3,3v66.41a3,3,0,0,0,3,3H60.72v9.45h-5a1,1,0,0,0,0,2H91.47a1,1,0,0,0,0-2h-5v-9.45h34a3,3,0,0,0,3-3V36.95a3,3,0,0,0-3-3Zm-36,81.86H62.72v-9.45H84.45Zm37-12.45a1,1,0,0,1-1,1h-93a1,1,0,0,1-1-1v-7h95Zm0-9h-95V36.95a1,1,0,0,1,1-1h93a1,1,0,0,1,1,1Z" transform="translate(-18.72 -33.95)"/><polygon class="cls-2" points="110.46 19.53 96.55 7.25 13.92 7.25 0.83 19.53 110.46 19.53"/><rect class="cls-3" x="15.4" y="24.14" width="79.63" height="30.66"/><path class="cls-2" d="M21.66,53.48h0a7.87,7.87,0,0,0,14.25,4.61,7.85,7.85,0,0,0,12.74,0,7.85,7.85,0,0,0,12.74,0,7.85,7.85,0,0,0,12.74,0,7.85,7.85,0,0,0,12.74,0,7.85,7.85,0,0,0,12.74,0,7.85,7.85,0,0,0,12.74,0,7.87,7.87,0,0,0,14.25-4.61Z" transform="translate(-18.72 -33.95)"/><path class="cls-1" d="M130,54,116.1,41.7a1,1,0,0,0-.66-.25H32.8a1,1,0,0,0-.68.27L19,54a1,1,0,0,0,.68,1.73h.91a8.86,8.86,0,0,0,15.1,4.59,8.83,8.83,0,0,0,12.48.26l.26-.26a8.84,8.84,0,0,0,12.5.24l.24-.24a8.83,8.83,0,0,0,12.48.26l.26-.26a8.84,8.84,0,0,0,12.5.24l.24-.24a8.84,8.84,0,0,0,12.5.24l.24-.24a8.84,8.84,0,0,0,12.5.24l.24-.24a8.86,8.86,0,0,0,15.1-4.59h2.08A1,1,0,0,0,130,54ZM33.2,43.45h81.86l11,9.7H22.85ZM118.53,61A6.9,6.9,0,0,1,113,58.18a1,1,0,0,0-1.62,0,6.85,6.85,0,0,1-11.12,0,1,1,0,0,0-1.62,0,6.85,6.85,0,0,1-11.12,0,1,1,0,0,0-1.62,0,6.85,6.85,0,0,1-11.12,0,1,1,0,0,0-1.62,0,6.85,6.85,0,0,1-11.12,0,1,1,0,0,0-1.62,0,6.85,6.85,0,0,1-11.12,0,1,1,0,0,0-1.62,0,6.85,6.85,0,0,1-11.12,0,1,1,0,0,0-1.62,0,6.86,6.86,0,0,1-12.25-2.45H125.23A6.89,6.89,0,0,1,118.53,61Z" transform="translate(-18.72 -33.95)"/></svg>