<svg id="Capa_1" data-name="Capa 1" xmlns="http://www.w3.org/2000/svg" viewBox="0 0 145.35 145.35"><defs><style>.cls-1{fill:none;stroke-miterlimit:10;stroke-width:6px;opacity:0.35;}.cls-1,.cls-4{stroke:#00c2de;}.cls-2{fill:#484a7d;}.cls-3{fill:#b7bdbf;}.cls-4{fill:#00c2de;stroke-linecap:round;stroke-linejoin:round;stroke-width:2px;}</style></defs><title>empresa</title><circle class="cls-1" cx="72.68" cy="72.68" r="69.68"/><path class="cls-2" d="M119.91,33.69h-93a3,3,0,0,0-3,3V103.1a3,3,0,0,0,3,3H60.19v9.45h-5a1,1,0,0,0,0,2H90.94a1,1,0,0,0,0-2h-5V106.1h34a3,3,0,0,0,3-3V36.69A3,3,0,0,0,119.91,33.69Zm-36,81.86H62.19V106.1H83.92Zm37-12.45a1,1,0,0,1-1,1h-93a1,1,0,0,1-1-1v-7h95Zm0-9h-95V36.69a1,1,0,0,1,1-1h93a1,1,0,0,1,1,1Z" transform="translate(-2.32 -2.06)"/><polygon class="cls-3" points="126.32 51.16 112.41 38.88 29.78 38.88 16.69 51.16 126.32 51.16"/><rect class="cls-4" x="31.26" y="55.77" width="79.63" height="30.66"/><path class="cls-3" d="M21.13,53.22h0a7.87,7.87,0,0,0,14.25,4.61,7.85,7.85,0,0,0,12.74,0,7.85,7.85,0,0,0,12.74,0,7.85,7.85,0,0,0,12.74,0,7.85,7.85,0,0,0,12.74,0,7.85,7.85,0,0,0,12.74,0,7.85,7.85,0,0,0,12.74,0,7.87,7.87,0,0,0,14.25-4.61H21.13Z" transform="translate(-2.32 -2.06)"/><circle class="cls-2" cx="140.85" cy="37.47" r="1.54"/><path class="cls-2" d="M135.14,51.11a1.2,1.2,0,0,1-1.2-1.2,6,6,0,0,1,6-6,1.2,1.2,0,1,1,0,2.39,3.59,3.59,0,0,0-3.59,3.59A1.2,1.2,0,0,1,135.14,51.11Z" transform="translate(-2.32 -2.06)"/><path class="cls-2" d="M130.35,46.33a1.2,1.2,0,0,1,0-2.39,3.59,3.59,0,0,0,3.59-3.59,1.2,1.2,0,0,1,2.39,0A6,6,0,0,1,130.35,46.33Z" transform="translate(-2.32 -2.06)"/><path class="cls-2" d="M135.14,51.11a1.2,1.2,0,0,1-1.2-1.2,3.59,3.59,0,0,0-3.59-3.59,1.2,1.2,0,0,1,0-2.39,6,6,0,0,1,6,6A1.2,1.2,0,0,1,135.14,51.11Z" transform="translate(-2.32 -2.06)"/><path class="cls-2" d="M139.93,46.33a6,6,0,0,1-6-6,1.2,1.2,0,0,1,2.39,0,3.59,3.59,0,0,0,3.59,3.59,1.2,1.2,0,1,1,0,2.39Z" transform="translate(-2.32 -2.06)"/><path class="cls-2" d="M107.8,30.13a.84.84,0,0,1-.84-.84,4.19,4.19,0,0,1,4.19-4.19.84.84,0,0,1,0,1.68,2.52,2.52,0,0,0-2.51,2.51A.84.84,0,0,1,107.8,30.13Z" transform="translate(-2.32 -2.06)"/><path class="cls-2" d="M104.45,26.78a.84.84,0,1,1,0-1.68A2.52,2.52,0,0,0,107,22.59a.84.84,0,0,1,1.68,0A4.19,4.19,0,0,1,104.45,26.78Z" transform="translate(-2.32 -2.06)"/><path class="cls-2" d="M107.8,30.13a.84.84,0,0,1-.84-.84,2.52,2.52,0,0,0-2.51-2.51.84.84,0,1,1,0-1.68,4.19,4.19,0,0,1,4.19,4.19A.84.84,0,0,1,107.8,30.13Z" transform="translate(-2.32 -2.06)"/><path class="cls-2" d="M111.15,26.78A4.19,4.19,0,0,1,107,22.59a.84.84,0,0,1,1.68,0,2.52,2.52,0,0,0,2.51,2.51.84.84,0,0,1,0,1.68Z" transform="translate(-2.32 -2.06)"/><path class="cls-2" d="M132.75,64.37a1.2,1.2,0,0,1-1.2-1.2V60.78a1.2,1.2,0,0,1,2.39,0v2.39A1.2,1.2,0,0,1,132.75,64.37Z" transform="translate(-2.32 -2.06)"/><path class="cls-2" d="M132.75,73.94a1.2,1.2,0,0,1-1.2-1.2V70.35a1.2,1.2,0,0,1,2.39,0v2.39A1.2,1.2,0,0,1,132.75,73.94Z" transform="translate(-2.32 -2.06)"/><path class="cls-2" d="M132.75,68a1.19,1.19,0,1,1,.85-.35A1.26,1.26,0,0,1,132.75,68Z" transform="translate(-2.32 -2.06)"/><path class="cls-2" d="M129.16,68h-2.39a1.2,1.2,0,1,1,0-2.39h2.39a1.2,1.2,0,0,1,0,2.39Z" transform="translate(-2.32 -2.06)"/><path class="cls-2" d="M138.73,68h-2.39a1.2,1.2,0,0,1,0-2.39h2.39a1.2,1.2,0,1,1,0,2.39Z" transform="translate(-2.32 -2.06)"/><path class="cls-2" d="M11.51,102.37a1.2,1.2,0,0,1-1.2-1.2V98.78a1.2,1.2,0,0,1,2.39,0v2.39A1.2,1.2,0,0,1,11.51,102.37Z" transform="translate(-2.32 -2.06)"/><path class="cls-2" d="M11.51,111.94a1.2,1.2,0,0,1-1.2-1.2v-2.39a1.2,1.2,0,0,1,2.39,0v2.39A1.2,1.2,0,0,1,11.51,111.94Z" transform="translate(-2.32 -2.06)"/><path class="cls-2" d="M11.51,106a1.19,1.19,0,1,1,.85-.35A1.26,1.26,0,0,1,11.51,106Z" transform="translate(-2.32 -2.06)"/><path class="cls-2" d="M7.92,106H5.53a1.2,1.2,0,1,1,0-2.39H7.92a1.2,1.2,0,1,1,0,2.39Z" transform="translate(-2.32 -2.06)"/><path class="cls-2" d="M17.49,106H15.1a1.2,1.2,0,1,1,0-2.39h2.39a1.2,1.2,0,0,1,0,2.39Z" transform="translate(-2.32 -2.06)"/><path class="cls-2" d="M129.48,53.71,115.57,41.44a1,1,0,0,0-.66-.25H32.27a1,1,0,0,0-.68.27L18.5,53.73a1,1,0,0,0,.68,1.73h.91a8.86,8.86,0,0,0,15.1,4.59,8.83,8.83,0,0,0,12.74,0,8.84,8.84,0,0,0,12.74,0,8.83,8.83,0,0,0,12.74,0,8.84,8.84,0,0,0,12.74,0,8.84,8.84,0,0,0,12.74,0,8.84,8.84,0,0,0,12.74,0,8.86,8.86,0,0,0,15.1-4.59h2.08a1,1,0,0,0,.66-1.75ZM32.67,43.19h81.86l11,9.7H22.32ZM118,60.77a6.9,6.9,0,0,1-5.56-2.85,1,1,0,0,0-1.62,0,6.85,6.85,0,0,1-11.12,0,1,1,0,0,0-1.62,0,6.85,6.85,0,0,1-11.12,0,1,1,0,0,0-1.62,0,6.85,6.85,0,0,1-11.12,0,1,1,0,0,0-1.62,0,6.85,6.85,0,0,1-11.12,0,1,1,0,0,0-1.62,0,6.85,6.85,0,0,1-11.12,0,1,1,0,0,0-1.62,0,6.85,6.85,0,0,1-11.12,0,1,1,0,0,0-1.62,0,6.86,6.86,0,0,1-12.25-2.45H124.7A6.89,6.89,0,0,1,118,60.77Z" transform="translate(-2.32 -2.06)"/></svg>