<svg id="Capa_1" data-name="Capa 1" xmlns="http://www.w3.org/2000/svg" viewBox="0 0 29.3 29.34"><defs><style>.cls-1{fill:#fff;}</style></defs><title>ff</title><path class="cls-1" d="M29.39.33H26.49a.82.82,0,0,0-.81.81v9H17V3.63A1.68,1.68,0,0,0,15.37,2H8.89A1.68,1.68,0,0,0,7.22,3.63v6.52H5.39v-9A.82.82,0,0,0,4.57.33H1.68a.82.82,0,0,0-.81.81V28.85a.82.82,0,0,0,.81.81H4.57a.82.82,0,0,0,.81-.81V24.49H25.64v4.36a.82.82,0,0,0,.81.81h2.89a.82.82,0,0,0,.81-.81V1.15A.76.76,0,0,0,29.39.33ZM3.76,28H2.49V2H3.76ZM8.85,10.11l0-6.52h2.44V4.94a.81.81,0,1,0,1.63,0V3.63h2.44v6.48a0,0,0,0,1,0,0ZM21.6,22.82s0,0,0,0H15l0-6.52h2.44v1.34a.81.81,0,0,0,1.63,0V16.3H21.6Zm4.07,0H23.23V16.34a1.68,1.68,0,0,0-1.67-1.67H15a1.68,1.68,0,0,0-1.67,1.67v6.52h-8V11.78H25.64V22.86ZM28.57,28H27.31V2h1.26Z" transform="translate(-0.86 -0.33)"/></svg>