<svg id="Capa_1" data-name="Capa 1" xmlns="http://www.w3.org/2000/svg" viewBox="0 0 262.01 261.47"><title>fullit</title><circle cx="132.01" cy="130.16" r="116.69" style="fill:#f7f7f8"/><path d="M21.25,199.16A129.07,129.07,0,0,1,56,28.7" transform="translate(-1 -2.5)" style="fill:none;stroke:#f7f7f8;stroke-linecap:round;stroke-linejoin:round;stroke-width:4px"/><path d="M169,256.58A129.35,129.35,0,0,1,62.55,241.7" transform="translate(-1 -2.5)" style="fill:none;stroke:#f7f7f8;stroke-linecap:round;stroke-linejoin:round;stroke-width:4px"/><path d="M158,6.58a129,129,0,0,1,38.93,237.88" transform="translate(-1 -2.5)" style="fill:none;stroke:#f7f7f8;stroke-linecap:round;stroke-linejoin:round;stroke-width:4px"/><path d="M113,5.8a129.59,129.59,0,0,1,26.11-1.06" transform="translate(-1 -2.5)" style="fill:none;stroke:#f7f7f8;stroke-linecap:round;stroke-linejoin:round;stroke-width:4px"/><path d="M56,28.7" transform="translate(-1 -2.5)" style="fill:none;stroke:#d8d9dd;stroke-miterlimit:10;stroke-width:4px"/><path d="M167.85,149.08l2.27-.18a7.05,7.05,0,0,1-3.65-4.57,8.25,8.25,0,0,0,3.3.59c-2.6-1.67-3.63-4.11-4.45-7a14.22,14.22,0,0,0,7.09,3.8,31.05,31.05,0,0,0,6.72.95c1.28,0,1.74.66,1.37,1.91a11.56,11.56,0,0,1-4.12,6.11,5.06,5.06,0,0,1-4.92.75A9.21,9.21,0,0,1,167.85,149.08Z" transform="translate(-1 -2.5)" style="fill:#fff"/><path d="M199.77,76.65a.65.65,0,0,1,.65.65v95.32a.65.65,0,0,1-.65.65H69.55a.65.65,0,0,1-.65-.65V77.3a.65.65,0,0,1,.65-.65H199.77m0-2.35H69.55a3,3,0,0,0-3,3v95.32a3,3,0,0,0,3,3H199.77a3,3,0,0,0,3-3V77.3a3,3,0,0,0-3-3Z" transform="translate(-1 -2.5)" style="fill:#484a7d"/><rect x="116.84" y="171.44" width="32.65" height="15.76" style="fill:none;stroke:#484a7d;stroke-miterlimit:10;stroke-width:2.35030150413513px"/><line x1="108.54" y1="187.2" x2="157.78" y2="187.2" style="fill:none;stroke:#484a7d;stroke-linecap:round;stroke-linejoin:round;stroke-width:2.35030150413513px"/><line x1="65.55" y1="156.24" x2="201.77" y2="156.24" style="fill:none;stroke:#484a7d;stroke-miterlimit:10;stroke-width:2.35030150413513px"/><circle cx="229.65" cy="79.84" r="2.11" style="fill:#c2c3c9"/><path d="M233.95,106.51a1.65,1.65,0,0,1-1.65-1.65,8.24,8.24,0,0,1,8.23-8.23,1.65,1.65,0,0,1,0,3.29,5,5,0,0,0-4.94,4.94A1.65,1.65,0,0,1,233.95,106.51Z" transform="translate(-1 -2.5)" style="fill:#c2c3c9"/><path d="M227.36,99.92a1.65,1.65,0,0,1,0-3.29,5,5,0,0,0,4.94-4.94,1.65,1.65,0,1,1,3.29,0A8.24,8.24,0,0,1,227.36,99.92Z" transform="translate(-1 -2.5)" style="fill:#c2c3c9"/><path d="M233.95,106.51a1.65,1.65,0,0,1-1.65-1.65,5,5,0,0,0-4.94-4.94,1.65,1.65,0,0,1,0-3.29,8.24,8.24,0,0,1,8.23,8.23A1.65,1.65,0,0,1,233.95,106.51Z" transform="translate(-1 -2.5)" style="fill:#c2c3c9"/><path d="M240.53,99.92a8.24,8.24,0,0,1-8.23-8.23,1.65,1.65,0,1,1,3.29,0,5,5,0,0,0,4.94,4.94,1.65,1.65,0,0,1,0,3.29Z" transform="translate(-1 -2.5)" style="fill:#c2c3c9"/><path d="M134.29,68.25a1.15,1.15,0,0,1-1.15-1.15,5.77,5.77,0,0,1,5.76-5.76,1.15,1.15,0,0,1,0,2.31,3.46,3.46,0,0,0-3.46,3.46A1.15,1.15,0,0,1,134.29,68.25Z" transform="translate(-1 -2.5)" style="fill:#aeadb3"/><path d="M129.68,63.64a1.15,1.15,0,0,1,0-2.31,3.46,3.46,0,0,0,3.46-3.46,1.15,1.15,0,1,1,2.31,0A5.77,5.77,0,0,1,129.68,63.64Z" transform="translate(-1 -2.5)" style="fill:#aeadb3"/><path d="M134.29,68.25a1.15,1.15,0,0,1-1.15-1.15,3.46,3.46,0,0,0-3.46-3.46,1.15,1.15,0,0,1,0-2.31,5.77,5.77,0,0,1,5.76,5.76A1.15,1.15,0,0,1,134.29,68.25Z" transform="translate(-1 -2.5)" style="fill:#aeadb3"/><path d="M138.9,63.64a5.77,5.77,0,0,1-5.76-5.76,1.15,1.15,0,1,1,2.31,0,3.46,3.46,0,0,0,3.46,3.46,1.15,1.15,0,0,1,0,2.31Z" transform="translate(-1 -2.5)" style="fill:#aeadb3"/><path d="M216.3,116.52a1.65,1.65,0,0,1-1.65-1.65v-3.29a1.65,1.65,0,1,1,3.29,0v3.29A1.65,1.65,0,0,1,216.3,116.52Z" transform="translate(-1 -2.5)" style="fill:#d8d9dd"/><path d="M216.3,129.69a1.65,1.65,0,0,1-1.65-1.65v-3.29a1.65,1.65,0,1,1,3.29,0V128A1.65,1.65,0,0,1,216.3,129.69Z" transform="translate(-1 -2.5)" style="fill:#d8d9dd"/><path d="M216.3,121.46a1.63,1.63,0,1,1,1.17-.48A1.73,1.73,0,0,1,216.3,121.46Z" transform="translate(-1 -2.5)" style="fill:#d8d9dd"/><path d="M211.36,121.46h-3.29a1.65,1.65,0,0,1,0-3.29h3.29a1.65,1.65,0,0,1,0,3.29Z" transform="translate(-1 -2.5)" style="fill:#d8d9dd"/><path d="M224.53,121.46h-3.29a1.65,1.65,0,0,1,0-3.29h3.29a1.65,1.65,0,0,1,0,3.29Z" transform="translate(-1 -2.5)" style="fill:#d8d9dd"/><path d="M49.47,168.8a1.65,1.65,0,0,1-1.65-1.65v-3.29a1.65,1.65,0,0,1,3.29,0v3.29A1.65,1.65,0,0,1,49.47,168.8Z" transform="translate(-1 -2.5)" style="fill:#aeadb3"/><path d="M49.47,182a1.65,1.65,0,0,1-1.65-1.65V177a1.65,1.65,0,0,1,3.29,0v3.29A1.65,1.65,0,0,1,49.47,182Z" transform="translate(-1 -2.5)" style="fill:#aeadb3"/><path d="M49.47,173.74a1.63,1.63,0,1,1,1.17-.48A1.73,1.73,0,0,1,49.47,173.74Z" transform="translate(-1 -2.5)" style="fill:#aeadb3"/><path d="M44.53,173.74H41.24a1.65,1.65,0,0,1,0-3.29h3.29a1.65,1.65,0,0,1,0,3.29Z" transform="translate(-1 -2.5)" style="fill:#aeadb3"/><path d="M57.7,173.74H54.41a1.65,1.65,0,0,1,0-3.29H57.7a1.65,1.65,0,0,1,0,3.29Z" transform="translate(-1 -2.5)" style="fill:#aeadb3"/><path d="M183.78,158.45h-99a3.27,3.27,0,0,1-3.26-3.26v-74A3.27,3.27,0,0,1,84.8,78h99A3.27,3.27,0,0,1,187,81.23v74A3.27,3.27,0,0,1,183.78,158.45Z" transform="translate(-1 -2.5)" style="fill:#fff;stroke:#484a7d;stroke-miterlimit:10;stroke-width:2.17518591880798px"/><rect x="92.89" y="115.71" width="21.21" height="19.85" rx="1" ry="1" style="fill:#484a7d;stroke:#484a7d;stroke-miterlimit:10;stroke-width:2.17518591880798px"/><rect x="123.35" y="115.71" width="21.21" height="19.85" rx="1" ry="1" style="fill:#00c2de;stroke:#484a7d;stroke-miterlimit:10;stroke-width:2.17518591880798px"/><path d="M175.87,158.45v-11a1.09,1.09,0,0,0-1.09-1.09h-19a1.09,1.09,0,0,0-1.09,1.09v11Z" transform="translate(-1 -2.5)" style="fill:#a3bd31;stroke:#484a7d;stroke-miterlimit:10;stroke-width:2.17518591880798px"/><path d="M145.55,158.45v-11a1.09,1.09,0,0,0-1.09-1.09h-19a1.09,1.09,0,0,0-1.09,1.09v11Z" transform="translate(-1 -2.5)" style="fill:#db9600;stroke:#484a7d;stroke-miterlimit:10;stroke-width:2.17518591880798px"/><path d="M115.1,158.45v-11a1.09,1.09,0,0,0-1.09-1.09H95a1.09,1.09,0,0,0-1.09,1.09v11Z" transform="translate(-1 -2.5)" style="fill:#58167d;stroke:#484a7d;stroke-miterlimit:10;stroke-width:2.17518591880798px"/><rect x="114.1" y="98.17" width="11.56" height="2.04" style="fill:#c2c3c9"/><rect x="114.1" y="102.66" width="11.56" height="2.04" style="fill:#c2c3c9"/><rect x="129.19" y="102.66" width="13.48" height="2.04" style="fill:#c2c3c9"/><rect x="129.19" y="98.17" width="25.89" height="2.04" style="fill:#c2c3c9"/><rect x="81.75" y="76.39" width="104.41" height="12.2" rx="2" ry="2" style="fill:#c2c3c9"/><circle cx="88.34" cy="82.49" r="1.28" style="fill:#2f3b64"/><circle cx="95.2" cy="82.49" r="1.28" style="fill:#2f3b64"/><circle cx="101.73" cy="82.49" r="1.28" style="fill:#2f3b64"/><path d="M200.07,47.52H153.85a4.36,4.36,0,0,0-4.35,4.35V86.13a4.36,4.36,0,0,0,4.35,4.35h9.92v6l8.43-6h27.87a4.36,4.36,0,0,0,4.35-4.35V51.87A4.36,4.36,0,0,0,200.07,47.52Z" transform="translate(-1 -2.5)" style="fill:#fff;stroke:#484a7d;stroke-miterlimit:10;stroke-width:2.17518591880798px"/><line x1="145.23" y1="87.43" x2="79.98" y2="88.52" style="fill:none;stroke:#484a7d;stroke-miterlimit:10;stroke-width:2.17518591880798px"/><rect x="153.66" y="115.71" width="21.21" height="19.85" rx="1" ry="1" style="fill:#c2c3c9;stroke:#484a7d;stroke-miterlimit:10;stroke-width:2.17518591880798px"/><path d="M191.73,75.56l-6.08-3.08,5.77-3c.18-.09.18-.25,0-.35l-6.48-3.28,6.81-3.52a.89.89,0,0,0,0-1.63L178.43,54a1.52,1.52,0,0,0-.68-.15,1.5,1.5,0,0,0-.62.13L162,61.05a.88.88,0,0,0,0,1.63l7.27,3.58-6.92,3.25c-.18.09-.18.23,0,.32l6.16,3-6.51,3a.88.88,0,0,0,0,1.63l14.26,7a1.47,1.47,0,0,0,.65.14,1.5,1.5,0,0,0,.68-.15l14.15-7.3a.89.89,0,0,0,0-1.63Zm-14-20.27h.07l12.38,6.26-13.22,6.84h0l-13.3-6.51Zm-.77,27.92h0l-13.29-6.5,6.29-3,6.35,3.13a1.55,1.55,0,0,0,1.32,0l6.71-3.46,5.86,3Z" transform="translate(-1 -2.5)" style="fill:#484a7d"/></svg>