<svg id="Capa_1" data-name="Capa 1" xmlns="http://www.w3.org/2000/svg" viewBox="0 0 24 25.12"><defs><style>.cls-1{fill:#fff;}</style></defs><title>home</title><path class="cls-1" d="M14.33,2.61,3.16,11a.85.85,0,0,0-.33.67V26.72a.87.87,0,0,0,.84.84h7.53a.87.87,0,0,0,.84-.84V18.63h5.58v8.09a.87.87,0,0,0,.84.84H26a.87.87,0,0,0,.84-.84V11.65A.85.85,0,0,0,26.5,11L15.34,2.61A.85.85,0,0,0,14.33,2.61Zm.51,1.72,10.33,7.74V25.88H19.3V17.79a.87.87,0,0,0-.84-.84H11.21a.87.87,0,0,0-.84.84v8.09H4.51V12.07Z" transform="translate(-2.83 -2.44)"/></svg>