<svg id="Capa_1" data-name="Capa 1" xmlns="http://www.w3.org/2000/svg" viewBox="0 0 41.82 41.68"><title>locacion</title><path d="M32,6.1h-1a9.54,9.54,0,0,0-8.08,5.47A10.6,10.6,0,0,0,23.11,22l8.34,14.07a.65.65,0,0,0,1,0l8.34-13.94a10.62,10.62,0,0,0,.26-10.42A9.89,9.89,0,0,0,33,6.23,3.24,3.24,0,0,0,32,6.1Z" transform="translate(-3.05 -3.49)" style="fill:#00c2de"/><path d="M32,38.92a2.92,2.92,0,0,1-2.74-1.56L20.89,23.42a13.61,13.61,0,0,1-.39-13,12.9,12.9,0,0,1,10.29-6.9h2.34a12.42,12.42,0,0,1,10.16,6.9,13,13,0,0,1-.39,13L34.7,37.36A3.54,3.54,0,0,1,32,38.92ZM32,6.1h-1a9.54,9.54,0,0,0-8.08,5.47A10.6,10.6,0,0,0,23.11,22l8.34,14.07a.65.65,0,0,0,1,0l8.34-13.94a10.62,10.62,0,0,0,.26-10.42A9.89,9.89,0,0,0,33,6.23,3.24,3.24,0,0,0,32,6.1Z" transform="translate(-3.05 -3.49)" style="fill:#484a7d"/><path d="M24.41,40H4.35a1.3,1.3,0,0,1,0-2.61H24.41a1.3,1.3,0,0,1,0,2.61Z" transform="translate(-3.05 -3.49)" style="fill:#00c2de"/><path d="M43.56,45.17H4.35a1.3,1.3,0,1,1,0-2.61H43.56a1.23,1.23,0,0,1,1.3,1.3A1.31,1.31,0,0,1,43.56,45.17Z" transform="translate(-3.05 -3.49)" style="fill:#484a7d"/><path d="M17.9,34.75H4.35a1.3,1.3,0,0,1,0-2.61H17.9a1.3,1.3,0,0,1,0,2.61Z" transform="translate(-3.05 -3.49)" style="fill:#484a7d"/><path d="M32,24.72a7.82,7.82,0,1,1,7.82-7.82A7.84,7.84,0,0,1,32,24.72Z" transform="translate(-3.05 -3.49)" style="fill:#484a7d"/><path d="M32,11.7a5.21,5.21,0,1,0,5.21,5.21A5.23,5.23,0,0,0,32,11.7Z" transform="translate(-3.05 -3.49)" style="fill:#fff"/></svg>