<?xml version="1.0" encoding="utf-8"?>
<!-- Generator: Adobe Illustrator 20.1.0, SVG Export Plug-In . SVG Version: 6.00 Build 0)  -->
<svg version="1.1" id="Layer_1" xmlns="http://www.w3.org/2000/svg" xmlns:xlink="http://www.w3.org/1999/xlink" x="0px" y="0px"
	 viewBox="0 0 154.5 83.4" style="enable-background:new 0 0 154.5 83.4;" xml:space="preserve">
<style type="text/css">
	.st0{fill-rule:evenodd;clip-rule:evenodd;fill:#00C2DE;}
	.st1{fill:#00C2DE;}
</style>
<g>
	<path class="st0" d="M85.3,13.9c0,0-17.5,0-24.1-8c0,0,1.7,9,7.4,11.6c0,0-3.9,0.4-5.6-1.2c0,0,0.3,5.2,6.6,7.7l-4.4,0.4
		c0,0,10.5,11.7,19-3.3c0,0,3.1-4.8,1.5-6.6L85.3,13.9z"/>
	<path class="st1" d="M13.1,32.1c0-2,2.5-2.8,4-2.8c4,0,6,3.8,9.8,3.8c1.5,0,4.8-1,4.8-4.3c0-6.8-10.8-8-14-8c-6,0-14,3-14,11.8
		c0,14.3,19.3,10,19.3,16c0,2.8-3,3.5-5.3,3.5c-6.5,0-5.8-4.5-10.3-4.5c-2.5,0-4.3,1.8-4.3,4.5c0,6.8,11,8.8,14.5,8.8
		c5.5,0,15.3-3,15.3-12.5C32.8,34.8,13.1,37.1,13.1,32.1z"/>
	<path class="st1" d="M121.5,20.3h-1.5c-2.2,0-4,1.8-4,4v0.5c0,2.2,1.8,4,4,4h1.5c2.2,0,4-1.8,4-4v-0.5
		C125.4,22.1,123.6,20.3,121.5,20.3z"/>
	<path class="st1" d="M146.4,51.9c-1.5-0.5-2.5,0.3-3.8-1v-9.5c3.5,0,7.3-0.5,7.3-4.5c0-1.3-1-4-3.5-4.3c-1.5-0.3-2.8,0.3-3.8-0.5
		c0.3-2.3-0.5-6-3-6.8c-0.5-0.3-1,0-1.5,0c-2.8,0-5.3,1.3-4.8,5v1.3c-1,1.8-4,0.8-4.8,3.8v1.5c0,2.8,1,3.8,4.8,4.8v11.3
		c0,0.5,0.8,2.8,1.5,4c3,3.8,5.3,3.5,8,3.5c2.3,0,6.3,0.2,6.3-4.3C149.2,54.6,148.7,52.6,146.4,51.9z"/>
	<path class="st1" d="M98.1,32.1c-0.5,0-3.5,0.5-5,1c-0.5,0-0.8,0.8-1.5,0.8c-0.8,0-2.8-1.8-4.3-1.8c-1.8,0-4.3,0.8-4.5,3.5
		c0,0,0,30.2,0,37.2c0,0.1,0,0.1,0,0.2c0,0.9,0.2,1.5,0.8,1.8c0.2,0.1,0.3,0.1,0.5,0.2c0.6,0.3,7.7,1.7,8-2.4c0-0.2,0-0.4,0-0.6
		c0-3.5,0-12.2,0-12.2c0-0.5,0.5-0.5,0.5-0.5c1,0.5,4.5,1.5,5.8,1.5c8,0,13.5-7.3,13.5-14.5C111.9,39.1,106.4,32.1,98.1,32.1z
		 M97.1,51.9c-3.5,0-5.3-2.3-5.3-5.5c0-3.5,2-5.5,5.3-5.5c3.8,0,5.5,2.8,5.5,5.5C102.6,50.1,99.6,51.9,97.1,51.9z"/>
	<path class="st1" d="M65.4,46.4c0,0,0-0.1,0-0.2c0.2-2.5-0.4-5.1-1.7-7c-0.1-0.2-0.2-0.4-0.4-0.5c-1.3-1.9-3.2-3.8-5.1-4.8
		C52.5,31.1,46,34.3,46,34.3l0-0.2c-0.3,0-0.1,0-0.4-0.3v-11c0-2.8-3.3-3.5-4.8-3.5c-1.8,0-3.6-0.4-4.5,3.3c0,0,0,27.4,0,35.2
		c0,0.1,0,0.2,0,0.2c-0.1,0.7,0,1.3,0.3,1.7c0.1,0.1,0.2,0.3,0.4,0.4c2.4,1,5.9,1.2,8-0.2c0.1-0.1,0.2-0.2,0.3-0.4
		c0.1-0.1,0.2-0.3,0.3-0.4V45.3c0-2.5,2.8-4.3,5-4.3c2.5,0,4.9,0.7,5.5,4.3c0,0,0,8.4,0,12.2c0,0.1,0,0.2,0,0.3
		c-0.1,1.2,0,2.2,0.8,2.6c0.2,0.1,0.8,0.3,1,0.4c2.9,0.4,4.4,0.6,6.8-0.5c0.1-0.1,0.3-0.2,0.4-0.3c0.1-0.1,0.2-0.5,0.3-0.6V47.2"/>
	<path class="st1" d="M124.4,32.8c-0.1-0.1-0.2-0.2-0.4-0.2c-0.4-0.1-0.7-0.1-1.1-0.2c-0.1,0-0.7-0.1-0.7-0.1
		c-5.2-0.1-6.1,0-6.2,2.4c0,0.1,0,0.3,0,0.4c0,2.1,0,6.7,0,11.1h0c0,4.5,0,9.1,0,11.4c0,0.1,0,0.2,0,0.3c0,0.9,0.1,1.6,0.6,2
		c0.1,0.1,0.2,0.2,0.4,0.2c0.4,0.1,0.7,0.1,1.1,0.2c0.1,0,0.7,0.1,0.7,0.1c5.2,0.1,6.1,0,6.2-2.4c0-0.1,0-0.3,0-0.4
		c0-2.1,0-6.7,0-11.1h0c0-4.5,0-9.1,0-11.4c0-0.1,0-0.2,0-0.3C125,33.9,125,33.2,124.4,32.8z"/>
	<path class="st1" d="M78.5,32.8c-0.1-0.1-0.2-0.2-0.4-0.2c-0.4-0.1-0.7-0.1-1.1-0.2c-0.1,0-0.7-0.1-0.7-0.1c-5.2-0.1-6.1,0-6.2,2.4
		c0,0.1,0,0.3,0,0.4c0,2.1,0,6.7,0,11.1h0c0,4.5,0,9.1,0,11.4c0,0.1,0,0.2,0,0.3c0,0.9,0.1,1.6,0.6,2c0.1,0.1,0.2,0.2,0.4,0.2
		c0.4,0.1,0.7,0.1,1.1,0.2c0.1,0,0.7,0.1,0.7,0.1c5.2,0.1,6.1,0,6.2-2.4c0-0.1,0-0.3,0-0.4c0-2.1,0-6.7,0-11.1h0c0-4.5,0-9.1,0-11.4
		c0-0.1,0-0.2,0-0.3C79.1,33.9,79.1,33.2,78.5,32.8z"/>
</g>
</svg>
