<svg id="Capa_1" data-name="Capa 1" xmlns="http://www.w3.org/2000/svg" viewBox="0 0 29.47 22.1"><defs><style>.cls-1{fill:#fff;}</style></defs><title>op</title><path class="cls-1" d="M1.74,22.57V6.36H16.47V22.57H9.84V24H20.16V22.57H17.95V6.36a1.48,1.48,0,0,0-1.47-1.47H1.74A1.48,1.48,0,0,0,.26,6.36V22.57A1.48,1.48,0,0,0,1.74,24h2.2V22.57Z" transform="translate(-0.26 -4.89)"/><path class="cls-1" d="M23.85,9.31a.72.72,0,0,1,.48.27L28,15.69a2.37,2.37,0,0,1,.27,1v5.9H26.05V24h2.2a1.46,1.46,0,0,0,1.48-1.47v-5.9a3.8,3.8,0,0,0-.48-1.74L25.59,8.82a2.16,2.16,0,0,0-1.74-1H17.21V9.31Z" transform="translate(-0.26 -4.89)"/><path class="cls-1" d="M22.36,10.78a1.46,1.46,0,0,0-1.47,1.46v4.45a1.46,1.46,0,0,0,1.47,1.46H29V16.67H22.36s0-4.43,0-4.43h3.68V10.78Z" transform="translate(-0.26 -4.89)"/><path class="cls-1" d="M6.9,19.62a3.68,3.68,0,1,0,3.68,3.68A3.68,3.68,0,0,0,6.9,19.62Zm0,5.89a2.21,2.21,0,1,1,2.21-2.21A2.21,2.21,0,0,1,6.9,25.52Z" transform="translate(-0.26 -4.89)"/><path class="cls-1" d="M23.1,19.62a3.68,3.68,0,1,0,3.68,3.68A3.68,3.68,0,0,0,23.1,19.62Zm0,5.89a2.21,2.21,0,1,1,2.21-2.21A2.21,2.21,0,0,1,23.1,25.52Z" transform="translate(-0.26 -4.89)"/></svg>