<svg id="Capa_1" data-name="Capa 1" xmlns="http://www.w3.org/2000/svg" viewBox="0 0 20.58 26.46"><defs><style>.cls-1{fill:#fff;}</style></defs><title>ordenes</title><path class="cls-1" d="M23,4.81H20.8V4.08a.73.73,0,0,0-.74-.74H17a2.21,2.21,0,0,0-4.16,0H9.77A.73.73,0,0,0,9,4.08v.74H6.83A2.21,2.21,0,0,0,4.63,7V26.13a2.21,2.21,0,0,0,2.21,2.21H23a2.21,2.21,0,0,0,2.21-2.21V7A2.21,2.21,0,0,0,23,4.81Zm-12.5,0h2.94a.73.73,0,0,0,.74-.74.74.74,0,0,1,1.47,0,.73.73,0,0,0,.74.74h2.94V6.28H10.51ZM23.74,26.13a.74.74,0,0,1-.74.74H6.83a.74.74,0,0,1-.74-.74V7a.74.74,0,0,1,.74-.74H9V7a.73.73,0,0,0,.74.74H20.06A.73.73,0,0,0,20.8,7V6.28H23a.74.74,0,0,1,.74.74Z" transform="translate(-4.63 -1.87)"/><path class="cls-1" d="M20.06,12.16H9.77a.74.74,0,0,0,0,1.47H20.06a.74.74,0,0,0,0-1.47Z" transform="translate(-4.63 -1.87)"/><path class="cls-1" d="M20.06,15.1H9.77a.74.74,0,0,0,0,1.47H20.06a.74.74,0,0,0,0-1.47Z" transform="translate(-4.63 -1.87)"/><path class="cls-1" d="M20.06,18H9.77a.74.74,0,0,0,0,1.47H20.06a.74.74,0,0,0,0-1.47Z" transform="translate(-4.63 -1.87)"/><path class="cls-1" d="M17.12,21H9.77a.74.74,0,0,0,0,1.47h7.35a.74.74,0,1,0,0-1.47Z" transform="translate(-4.63 -1.87)"/></svg>