<svg id="Capa_1" data-name="Capa 1" xmlns="http://www.w3.org/2000/svg" viewBox="0 0 145.35 145.35"><defs><style>.cls-1{fill:none;stroke:#00c2de;stroke-miterlimit:10;stroke-width:6px;opacity:0.35;}.cls-2,.cls-5{fill:#484a7d;}.cls-3{fill:#00c2de;}.cls-4{fill:#04c778;}.cls-5,.cls-6{fill-rule:evenodd;}.cls-6{fill:#fff;}</style></defs><title>pagos</title><circle class="cls-1" cx="72.68" cy="72.68" r="69.68"/><path class="cls-2" d="M40.08,81.47a7.38,7.38,0,0,1,4.1,1.31,9.69,9.69,0,0,0-1.74,5.67,10.61,10.61,0,0,0,1.74,5.67,6.59,6.59,0,0,1-4.1,1.31,7,7,0,0,1,0-14Zm6.11,3.58a7.07,7.07,0,0,1,0,6.81,7.58,7.58,0,0,1-.87-3.4A6.61,6.61,0,0,1,46.19,85.06Zm2-2.18a6.59,6.59,0,0,1,4.1-1.31,7,7,0,1,1,0,14,7.38,7.38,0,0,1-4.1-1.31,9.7,9.7,0,0,0,1.74-5.67A9.53,9.53,0,0,0,48.19,82.87ZM40.08,98.31a10.14,10.14,0,0,0,6.11-2.09,9.76,9.76,0,0,0,6.11,2.09,9.86,9.86,0,1,0,0-19.72,10.14,10.14,0,0,0-6.11,2.09,9.76,9.76,0,0,0-6.11-2.09,9.86,9.86,0,0,0,0,19.72Z" transform="translate(-2.32 -2.06)"/><path class="cls-2" d="M98.14,95.78A7.22,7.22,0,0,1,90.9,103H33.32a7.22,7.22,0,0,1-7.24-7.24v-21H98.22v21ZM33.32,55.91H90.9a7.3,7.3,0,0,1,7,5.23H26.34A7.22,7.22,0,0,1,33.32,55.91ZM90.9,53H33.32A10.12,10.12,0,0,0,23.21,63.15V95.78A10.12,10.12,0,0,0,33.32,105.9H90.9A10.12,10.12,0,0,0,101,95.78V63.16A10.07,10.07,0,0,0,90.9,53Z" transform="translate(-2.32 -2.06)"/><circle class="cls-3" cx="88.93" cy="64.36" r="29.1"/><circle class="cls-4" cx="114.05" cy="89.8" r="14.55"/><circle class="cls-2" cx="112.72" cy="23.39" r="1.54"/><path class="cls-2" d="M107,37a1.2,1.2,0,0,1-1.2-1.2,6,6,0,0,1,6-6,1.2,1.2,0,0,1,0,2.39,3.59,3.59,0,0,0-3.59,3.59A1.2,1.2,0,0,1,107,37Z" transform="translate(-2.32 -2.06)"/><path class="cls-2" d="M102.22,32.25a1.2,1.2,0,0,1,0-2.39,3.59,3.59,0,0,0,3.59-3.59,1.2,1.2,0,1,1,2.39,0A6,6,0,0,1,102.22,32.25Z" transform="translate(-2.32 -2.06)"/><path class="cls-2" d="M107,37a1.2,1.2,0,0,1-1.2-1.2,3.59,3.59,0,0,0-3.59-3.59,1.2,1.2,0,0,1,0-2.39,6,6,0,0,1,6,6A1.2,1.2,0,0,1,107,37Z" transform="translate(-2.32 -2.06)"/><path class="cls-2" d="M111.79,32.25a6,6,0,0,1-6-6,1.2,1.2,0,1,1,2.39,0,3.59,3.59,0,0,0,3.59,3.59,1.2,1.2,0,0,1,0,2.39Z" transform="translate(-2.32 -2.06)"/><path class="cls-2" d="M63.46,45.78a.84.84,0,0,1-.84-.84,4.19,4.19,0,0,1,4.19-4.19.84.84,0,0,1,0,1.68,2.52,2.52,0,0,0-2.51,2.51A.84.84,0,0,1,63.46,45.78Z" transform="translate(-2.32 -2.06)"/><path class="cls-2" d="M60.11,42.43a.84.84,0,0,1,0-1.68,2.52,2.52,0,0,0,2.51-2.51.84.84,0,1,1,1.68,0A4.19,4.19,0,0,1,60.11,42.43Z" transform="translate(-2.32 -2.06)"/><path class="cls-2" d="M63.46,45.78a.84.84,0,0,1-.84-.84,2.52,2.52,0,0,0-2.51-2.51.84.84,0,0,1,0-1.68,4.19,4.19,0,0,1,4.19,4.19A.84.84,0,0,1,63.46,45.78Z" transform="translate(-2.32 -2.06)"/><path class="cls-2" d="M66.81,42.43a4.19,4.19,0,0,1-4.19-4.19.84.84,0,1,1,1.68,0,2.52,2.52,0,0,0,2.51,2.51.84.84,0,0,1,0,1.68Z" transform="translate(-2.32 -2.06)"/><path class="cls-2" d="M91.85,112a1.2,1.2,0,0,1-1.2-1.2V108.4a1.2,1.2,0,0,1,2.39,0v2.39A1.2,1.2,0,0,1,91.85,112Z" transform="translate(-2.32 -2.06)"/><path class="cls-2" d="M91.85,121.57a1.2,1.2,0,0,1-1.2-1.2V118a1.2,1.2,0,0,1,2.39,0v2.39A1.2,1.2,0,0,1,91.85,121.57Z" transform="translate(-2.32 -2.06)"/><path class="cls-2" d="M91.85,115.58a1.19,1.19,0,1,1,.85-.35A1.26,1.26,0,0,1,91.85,115.58Z" transform="translate(-2.32 -2.06)"/><path class="cls-2" d="M88.26,115.58H85.87a1.2,1.2,0,1,1,0-2.39h2.39a1.2,1.2,0,1,1,0,2.39Z" transform="translate(-2.32 -2.06)"/><path class="cls-2" d="M97.84,115.58H95.44a1.2,1.2,0,1,1,0-2.39h2.39a1.2,1.2,0,1,1,0,2.39Z" transform="translate(-2.32 -2.06)"/><path class="cls-5" d="M104.36,93.79a29.73,29.73,0,1,1,14.5-14.5,12.38,12.38,0,0,0-2.5-.25,12,12,0,0,0-1.31.07A26.23,26.23,0,1,0,104.17,90a12,12,0,0,0-.07,1.31A12.38,12.38,0,0,0,104.36,93.79Z" transform="translate(-2.32 -2.06)"/><path class="cls-5" d="M116.35,103.53A12.25,12.25,0,1,0,104.1,91.28,12.25,12.25,0,0,0,116.35,103.53Zm0,3.5A15.75,15.75,0,1,0,100.6,91.28,15.75,15.75,0,0,0,116.35,107Z" transform="translate(-2.32 -2.06)"/><path class="cls-5" d="M93.6,54.11V51H90.1v3.25c-3.45.78-5.74,3.42-5.74,6.6,0,7.54,11.87,6.39,11.87,11.7,0,2.33-1.94,3.61-4.24,3.61a9.69,9.69,0,0,1-6.25-2.64L83.8,76.16a11.29,11.29,0,0,0,6.3,3.09v3.28h3.5V79.26a6.81,6.81,0,0,0,6.1-6.78c0-7.95-11.87-6.6-11.87-11.66,0-1.95,1.84-3.58,4.44-3.58a8.64,8.64,0,0,1,5.38,2.12l1.56-2.85A9.7,9.7,0,0,0,93.6,54.11Z" transform="translate(-2.32 -2.06)"/><polygon class="cls-6" points="105.39 87.98 107.86 85.51 112.81 90.45 120.23 83.03 122.71 85.51 112.81 95.41 105.39 87.98"/></svg>