<?xml version="1.0" encoding="utf-8"?>
<!-- Generator: Adobe Illustrator 20.1.0, SVG Export Plug-In . SVG Version: 6.00 Build 0)  -->
<svg version="1.1" id="Capa_1" xmlns="http://www.w3.org/2000/svg" xmlns:xlink="http://www.w3.org/1999/xlink" x="0px" y="0px"
	 viewBox="0 0 145.4 145.4" style="enable-background:new 0 0 145.4 145.4;" xml:space="preserve">
<style type="text/css">
	.st0{fill:#D3D8EF;enable-background:new    ;}
	.st1{fill:#FFFFFF;}
</style>
<title>pagos-off</title>
<path class="st0" d="M37.8,79.4c1.5,0,2.9,0.5,4.1,1.3c-1.2,1.7-1.8,3.6-1.7,5.7c0,2,0.6,4,1.7,5.7c-1.2,0.9-2.6,1.3-4.1,1.3
	c-3.9,0-7-3.1-7-7S33.9,79.4,37.8,79.4L37.8,79.4z M43.9,83c1.2,2.1,1.2,4.7,0,6.8c-0.6-1.1-0.9-2.2-0.9-3.4
	C43,85.2,43.3,84,43.9,83z M45.9,80.8c1.2-0.9,2.6-1.4,4.1-1.3c3.9,0,7,3.1,7,7s-3.1,7-7,7c-1.5,0-2.9-0.5-4.1-1.3
	c1.2-1.7,1.8-3.6,1.7-5.7C47.7,84.5,47.1,82.5,45.9,80.8L45.9,80.8z M37.8,96.2c2.2,0,4.4-0.7,6.1-2.1c1.7,1.4,3.9,2.1,6.1,2.1
	c5.4,0,9.9-4.4,9.9-9.9s-4.4-9.9-9.9-9.9l0,0l0,0c-2.2,0-4.4,0.7-6.1,2.1c-1.7-1.4-3.9-2.1-6.1-2.1c-5.4,0-9.9,4.4-9.9,9.9
	S32.3,96.2,37.8,96.2L37.8,96.2z"/>
<path class="st0" d="M95.8,93.7c0,4-3.2,7.2-7.2,7.2l0,0H31c-4,0-7.2-3.2-7.2-7.2c0,0,0,0,0,0l0,0v-21h72.1L95.8,93.7L95.8,93.7z
	 M31,53.8h57.6c3.2,0,6.1,2.1,7,5.2H24C24.9,56,27.8,53.8,31,53.8z M88.6,50.9H31c-5.6,0-10.1,4.5-10.1,10.1c0,0,0,0,0,0v32.7
	c0,5.6,4.5,10.1,10.1,10.1h57.6c5.6,0,10.1-4.5,10.1-10.1V61.1c0-5.6-4.4-10.1-10-10.2C88.7,50.9,88.7,50.9,88.6,50.9L88.6,50.9z"/>
<circle class="st1" cx="88.9" cy="64.4" r="29.1"/>
<circle class="st0" cx="114.1" cy="89.8" r="14.6"/>
<path class="st0" d="M102,91.7c-14.9,6.9-32.6,0.4-39.5-14.5S62.1,44.7,77,37.8s32.6-0.4,39.5,14.5c3.7,7.9,3.7,17,0,25
	c-0.8-0.2-1.7-0.2-2.5-0.2c-0.4,0-0.9,0-1.3,0.1c6.8-12.8,1.9-28.7-10.9-35.5s-28.7-1.9-35.5,10.9S64.4,81.2,77.2,88
	c7.7,4.1,16.9,4.1,24.6,0c0,0.4-0.1,0.9-0.1,1.3C101.7,90.1,101.8,90.9,102,91.7z"/>
<path class="st0" d="M91.3,52v-3.1h-3.5v3.2C84.3,53,82,55.6,82,58.8c0,7.5,11.9,6.4,11.9,11.7c0,2.3-1.9,3.6-4.2,3.6
	c-2.3-0.1-4.6-1-6.2-2.6l-1.9,2.6c1.7,1.7,3.9,2.8,6.3,3.1v3.3h3.5v-3.3c3.5-0.4,6.1-3.3,6.1-6.8c0-7.9-11.9-6.6-11.9-11.7
	c0-2,1.8-3.6,4.4-3.6c2,0.1,3.9,0.8,5.4,2.1l1.6-2.8C95.3,53.1,93.4,52.2,91.3,52z"/>
<polygon class="st1" points="105.4,88 107.9,85.5 112.8,90.4 120.2,83 122.7,85.5 112.8,95.4 "/>
</svg>
