<svg id="Capa_1" data-name="Capa 1" xmlns="http://www.w3.org/2000/svg" viewBox="0 0 27.63 27.63"><defs><style>.cls-1{fill:#fff;fill-rule:evenodd;}</style></defs><title>pago</title><path class="cls-1" d="M15.73,9.73V8.46H14.28V9.8a2.86,2.86,0,0,0-2.39,2.74c0,3.13,4.93,2.65,4.93,4.86a1.57,1.57,0,0,1-1.76,1.5,4,4,0,0,1-2.6-1.1l-.81,1.08a4.69,4.69,0,0,0,2.62,1.28v1.36h1.45V20.18a2.83,2.83,0,0,0,2.53-2.81c0-3.3-4.93-2.74-4.93-4.84A1.66,1.66,0,0,1,15.18,11a3.59,3.59,0,0,1,2.24.88l.65-1.18A4,4,0,0,0,15.73,9.73Z" transform="translate(-1.19 -1.19)"/><path class="cls-1" d="M24.25,25.25A13.81,13.81,0,0,1,2.41,9.33a.73.73,0,0,1,1.32.6A12.36,12.36,0,0,0,23.17,24.27l-3.31.12-.05-1.45,5.81-.2.2,5.81-1.45,0ZM5.74,4.75A13.81,13.81,0,0,1,27.59,20.67a.73.73,0,0,1-1.32-.6A12.36,12.36,0,0,0,6.83,5.72l3.3-.11.05,1.45-5.81.2-.2-5.81L5.63,1.4Z" transform="translate(-1.19 -1.19)"/></svg>