<svg id="Capa_1" data-name="Capa 1" xmlns="http://www.w3.org/2000/svg" viewBox="0 0 25.66 25.68"><defs><style>.cls-1{fill:#fff;}</style></defs><title>pp</title><path class="cls-1" d="M21,11.11a4,4,0,1,0,4,4A4,4,0,0,0,21,11.11Zm0,6.53a2.53,2.53,0,1,1,2.53-2.53A2.54,2.54,0,0,1,21,17.65Z" transform="translate(-2.09 -2.26)"/><path class="cls-1" d="M21,8.26a6.67,6.67,0,0,0-1.21.11v-4a2.15,2.15,0,0,0-2.14-2.14H4.23A2.15,2.15,0,0,0,2.09,4.41V17.75a2.15,2.15,0,0,0,2.14,2.14H15.29a35.07,35.07,0,0,0,5.1,7.82.69.69,0,0,0,1.07,0c.25-.32,6.28-7.78,6.28-12.6A6.79,6.79,0,0,0,21,8.26ZM9,3.69h3.85V7L12,7.47l-1.39-1A.73.73,0,0,0,10,6.37l-1.11.25V3.69Zm5.78,14.77H4.23a.72.72,0,0,1-.71-.71V15.4H4.94a.71.71,0,0,0,0-1.43H3.51V12.54H6.37a.71.71,0,1,0,0-1.43H3.51V4.41a.72.72,0,0,1,.71-.71H7.55V7.47a.71.71,0,0,0,.86.71L10,7.83,11.51,8.9a.81.81,0,0,0,.75.07l1.61-.82a.67.67,0,0,0,.39-.64V3.69h3.32a.72.72,0,0,1,.71.71V8.79a6.81,6.81,0,0,0-4.18,6.28A10.54,10.54,0,0,0,14.76,18.47Zm6.17,7.64c-1.46-1.82-5.39-7-5.39-11a5.39,5.39,0,1,1,10.78,0C26.35,18.64,22.39,24.18,20.93,26.1Z" transform="translate(-2.09 -2.26)"/></svg>