<svg id="Capa_1" data-name="Capa 1" xmlns="http://www.w3.org/2000/svg" viewBox="0 0 21.64 18.01"><defs><style>.cls-1{fill:#fff;}</style></defs><title>servicios-setup</title><path class="cls-1" d="M10.54,4.73H24.78a.65.65,0,1,0,0-1.31H10.54a2,2,0,0,0-3.82,0H4.57a.65.65,0,0,0,0,1.31H6.72a2,2,0,0,0,3.82,0Z" transform="translate(-3.92 -2.04)"/><path class="cls-1" d="M20.82,20.06a2,2,0,0,0,1.91-1.37H24.9a.65.65,0,0,0,0-1.31H22.73a2,2,0,0,0-3.82,0H4.69a.65.65,0,0,0,0,1.31H18.91A2,2,0,0,0,20.82,20.06Z" transform="translate(-3.92 -2.04)"/><path class="cls-1" d="M16.59,11.7H24.9a.65.65,0,1,0,0-1.31H16.59a2,2,0,0,0-3.82,0H4.69a.65.65,0,0,0,0,1.31h8.08a2,2,0,0,0,3.82,0Z" transform="translate(-3.92 -2.04)"/></svg>