<?xml version="1.0" encoding="utf-8"?>
<!-- Generator: Adobe Illustrator 20.1.0, SVG Export Plug-In . SVG Version: 6.00 Build 0)  -->
<svg version="1.1" id="Capa_1" xmlns="http://www.w3.org/2000/svg" xmlns:xlink="http://www.w3.org/1999/xlink" x="0px" y="0px"
	 viewBox="0 0 150 150" style="enable-background:new 0 0 150 150;" xml:space="preserve">
<style type="text/css">
	.st0{fill:#D3D8EF;}
	.st1{fill:none;stroke:#F9F9F9;stroke-miterlimit:10;}
</style>
<title>settings-off</title>
<g>
	<path class="st0" d="M61.5,52.3h45.9c1.2,0,2.1-0.9,2.1-2.1s-0.9-2.1-2.1-2.1H61.5c-1.1-3.4-4.8-5.2-8.2-4.1
		c-1.9,0.6-3.4,2.2-4.1,4.1h-6.9c-1.2,0-2.1,0.9-2.1,2.1s0.9,2.1,2.1,2.1h6.9c1.1,3.4,4.8,5.2,8.2,4.1
		C59.3,55.8,60.9,54.3,61.5,52.3z"/>
	<path class="st0" d="M94.6,101.8c2.8,0,5.3-1.8,6.2-4.4h7c1.2,0,2.1-0.9,2.1-2.1s-0.9-2.1-2.1-2.1h-7c-1.1-3.4-4.8-5.2-8.2-4.1
		c-1.9,0.6-3.4,2.2-4.1,4.1H42.6c-1.2,0-2.1,0.9-2.1,2.1s0.9,2.1,2.1,2.1h45.9C89.4,100,91.8,101.8,94.6,101.8z"/>
	<path class="st0" d="M81,74.8h26.8c1.2,0,2.1-0.9,2.1-2.1s-0.9-2.1-2.1-2.1l0,0H81c-1.1-3.4-4.8-5.2-8.2-4.1
		c-1.9,0.6-3.4,2.2-4.1,4.1h-26c-1.2,0-2.1,0.9-2.1,2.1s0.9,2.1,2.1,2.1h26c1.1,3.4,4.8,5.2,8.2,4.1C78.8,78.3,80.3,76.8,81,74.8
		L81,74.8z"/>
	<circle class="st0" cx="55.2" cy="50.2" r="6.7"/>
	<circle class="st0" cx="74.8" cy="72.5" r="6.7"/>
</g>
<circle class="st1" cx="74.4" cy="74.6" r="69.4"/>
</svg>
