<svg id="Capa_1" data-name="Capa 1" xmlns="http://www.w3.org/2000/svg" viewBox="0 0 145.35 145.35"><defs><style>.cls-1{fill:none;stroke:#00c2de;stroke-miterlimit:10;stroke-width:6px;opacity:0.35;}.cls-2{fill:#484a7d;}.cls-3{fill:#00c2de;}.cls-4{fill:#4ecc8f;}</style></defs><title>settings</title><circle class="cls-1" cx="72.68" cy="72.68" r="69.68"/><path class="cls-2" d="M61.5,52.07h45.92a2.11,2.11,0,0,0,0-4.22H61.5a6.5,6.5,0,0,0-12.32,0H42.24a2.11,2.11,0,1,0,0,4.22h6.94a6.5,6.5,0,0,0,12.32,0Z" transform="translate(-2.32 -2.06)"/><path class="cls-2" d="M94.63,101.5a6.52,6.52,0,0,0,6.16-4.43h7a2.11,2.11,0,0,0,0-4.22h-7a6.5,6.5,0,0,0-12.32,0H42.62a2.11,2.11,0,0,0,0,4.22H88.47A6.52,6.52,0,0,0,94.63,101.5Z" transform="translate(-2.32 -2.06)"/><path class="cls-2" d="M81,74.57h26.81a2.11,2.11,0,0,0,0-4.22H81a6.5,6.5,0,0,0-12.32,0h-26a2.11,2.11,0,0,0,0,4.22H68.67a6.5,6.5,0,0,0,12.32,0Z" transform="translate(-2.32 -2.06)"/><circle class="cls-3" cx="52.87" cy="47.9" r="6.72"/><circle class="cls-4" cx="72.5" cy="70.17" r="6.72"/><path class="cls-2" d="M102.71,33.08a.79.79,0,0,1-.79-.79,4,4,0,0,1,3.95-3.95.79.79,0,0,1,0,1.58,2.37,2.37,0,0,0-2.37,2.37A.79.79,0,0,1,102.71,33.08Z" transform="translate(-2.32 -2.06)"/><path class="cls-2" d="M99.55,29.93a.79.79,0,0,1,0-1.58A2.37,2.37,0,0,0,101.92,26a.79.79,0,1,1,1.58,0A4,4,0,0,1,99.55,29.93Z" transform="translate(-2.32 -2.06)"/><path class="cls-2" d="M102.71,33.08a.79.79,0,0,1-.79-.79,2.37,2.37,0,0,0-2.37-2.37.79.79,0,0,1,0-1.58,4,4,0,0,1,3.95,3.95A.79.79,0,0,1,102.71,33.08Z" transform="translate(-2.32 -2.06)"/><path class="cls-2" d="M105.87,29.93A4,4,0,0,1,101.92,26a.79.79,0,1,1,1.58,0,2.37,2.37,0,0,0,2.37,2.37.79.79,0,0,1,0,1.58Z" transform="translate(-2.32 -2.06)"/><path class="cls-2" d="M46.3,127.89a1.23,1.23,0,0,1-1.23-1.23,6.18,6.18,0,0,1,6.17-6.17,1.23,1.23,0,1,1,0,2.47,3.71,3.71,0,0,0-3.7,3.7A1.23,1.23,0,0,1,46.3,127.89Z" transform="translate(-2.32 -2.06)"/><path class="cls-2" d="M41.36,123a1.23,1.23,0,1,1,0-2.47,3.71,3.71,0,0,0,3.7-3.7,1.23,1.23,0,1,1,2.47,0A6.18,6.18,0,0,1,41.36,123Z" transform="translate(-2.32 -2.06)"/><path class="cls-2" d="M46.3,127.89a1.23,1.23,0,0,1-1.23-1.23,3.71,3.71,0,0,0-3.7-3.7,1.23,1.23,0,1,1,0-2.47,6.18,6.18,0,0,1,6.17,6.17A1.23,1.23,0,0,1,46.3,127.89Z" transform="translate(-2.32 -2.06)"/><path class="cls-2" d="M51.23,123a6.18,6.18,0,0,1-6.17-6.17,1.23,1.23,0,1,1,2.47,0,3.71,3.71,0,0,0,3.7,3.7,1.23,1.23,0,1,1,0,2.47Z" transform="translate(-2.32 -2.06)"/><path class="cls-2" d="M125.17,29.14a1.59,1.59,0,0,1-1.59-1.59V24.36a1.59,1.59,0,1,1,3.18,0v3.18A1.59,1.59,0,0,1,125.17,29.14Z" transform="translate(-2.32 -2.06)"/><path class="cls-2" d="M125.17,41.87a1.59,1.59,0,0,1-1.59-1.59V37.1a1.59,1.59,0,1,1,3.18,0v3.18A1.59,1.59,0,0,1,125.17,41.87Z" transform="translate(-2.32 -2.06)"/><path class="cls-2" d="M125.17,33.91a1.58,1.58,0,1,1,1.13-.46A1.67,1.67,0,0,1,125.17,33.91Z" transform="translate(-2.32 -2.06)"/><path class="cls-2" d="M120.39,33.91h-3.18a1.59,1.59,0,1,1,0-3.18h3.18a1.59,1.59,0,0,1,0,3.18Z" transform="translate(-2.32 -2.06)"/><path class="cls-2" d="M133.13,33.91h-3.18a1.59,1.59,0,0,1,0-3.18h3.18a1.59,1.59,0,1,1,0,3.18Z" transform="translate(-2.32 -2.06)"/></svg>