<svg id="Capa_1" data-name="Capa 1" xmlns="http://www.w3.org/2000/svg" viewBox="0 0 153.39 138.68"><defs><style>.cls-1{fill:#fff;}.cls-1,.cls-10,.cls-2,.cls-3,.cls-4,.cls-8,.cls-9{stroke:#484a7d;}.cls-1,.cls-2,.cls-3,.cls-4{stroke-miterlimit:10;stroke-width:2px;}.cls-10,.cls-2{fill:#484a7d;}.cls-3,.cls-7,.cls-9{fill:#00c2de;}.cls-4,.cls-8{fill:none;}.cls-5{fill:#c2c3c9;}.cls-6{fill:#2f3b64;}.cls-10,.cls-8,.cls-9{stroke-linecap:round;stroke-linejoin:round;}</style></defs><title>solicita</title><path class="cls-1" d="M149.89,145.69H28a4,4,0,0,1-4-4V50.56a4,4,0,0,1,4-4H149.89a4,4,0,0,1,4,4v91.12A4,4,0,0,1,149.89,145.69Z" transform="translate(-22.93 -8.02)"/><rect class="cls-2" x="16.22" y="88.1" width="26.13" height="24.45" rx="1" ry="1"/><rect class="cls-3" x="53.74" y="88.1" width="26.13" height="24.45" rx="1" ry="1"/><path class="cls-4" d="M140.15,145.69V132.13a1.34,1.34,0,0,0-1.34-1.34H115.36a1.34,1.34,0,0,0-1.34,1.34v13.57Z" transform="translate(-22.93 -8.02)"/><path class="cls-4" d="M102.8,145.69V132.13a1.34,1.34,0,0,0-1.34-1.34H78a1.34,1.34,0,0,0-1.34,1.34v13.57Z" transform="translate(-22.93 -8.02)"/><path class="cls-4" d="M65.28,145.69V132.13a1.34,1.34,0,0,0-1.34-1.34H40.49a1.34,1.34,0,0,0-1.34,1.34v13.57Z" transform="translate(-22.93 -8.02)"/><rect class="cls-5" x="42.35" y="66.49" width="14.24" height="2.51"/><rect class="cls-5" x="42.35" y="72.02" width="14.24" height="2.51"/><rect class="cls-5" x="60.94" y="72.02" width="16.6" height="2.51"/><rect class="cls-5" x="60.94" y="66.49" width="31.89" height="2.51"/><rect class="cls-5" x="2.49" y="39.65" width="128.63" height="15.03" rx="2" ry="2"/><circle class="cls-6" cx="10.61" cy="47.16" r="1.57"/><circle class="cls-6" cx="19.07" cy="47.16" r="1.57"/><circle class="cls-6" cx="27.11" cy="47.16" r="1.57"/><path class="cls-1" d="M170,9H113a5.38,5.38,0,0,0-5.36,5.36V56.59A5.38,5.38,0,0,0,113,61.95h12.23v7.37l10.38-7.37H170a5.38,5.38,0,0,0,5.36-5.36V14.38A5.38,5.38,0,0,0,170,9Z" transform="translate(-22.93 -8.02)"/><line class="cls-4" x1="80.7" y1="53.26" x2="0.31" y2="54.6"/><path class="cls-7" d="M130.52,41.3l4.27-.34c-3.38-2-5.94-4.53-6.89-8.61a15.55,15.55,0,0,0,6.22,1.1c-4.89-3.15-6.83-7.74-8.38-13.24,3.94,4.06,8.51,5.92,13.37,7.16a58.51,58.51,0,0,0,12.65,1.79c2.4.08,3.28,1.25,2.57,3.6a21.78,21.78,0,0,1-7.77,11.51,9.53,9.53,0,0,1-9.27,1.42A17.36,17.36,0,0,1,130.52,41.3Z" transform="translate(-22.93 -8.02)"/><path class="cls-8" d="M122.44,97.73a7.57,7.57,0,0,0,15.14,0h-1.75a5.82,5.82,0,0,1-11.65,0Z" transform="translate(-22.93 -8.02)"/><path class="cls-9" d="M135.83,97.73a15.18,15.18,0,0,1-11.65,0,5.82,5.82,0,0,0,11.65,0Z" transform="translate(-22.93 -8.02)"/><path class="cls-10" d="M152.64,109a7.07,7.07,0,1,1-7.07-7.07A7.07,7.07,0,0,1,152.64,109Z" transform="translate(-22.93 -8.02)"/><polygon class="cls-7" points="124.38 97.66 122.28 101.12 119.69 99.55 118.65 101.27 122.96 103.89 126.11 98.71 124.38 97.66"/><path class="cls-9" d="M138.5,109a7.07,7.07,0,0,1,6.33-7l-5.5-4.28h-1.75a7.57,7.57,0,0,1-15.14,0h-1.75l-10.48,8.15,3.49,7,4.48-2.33v8.4h23.66V115A7.06,7.06,0,0,1,138.5,109Z" transform="translate(-22.93 -8.02)"/></svg>