<svg id="Capa_1" data-name="Capa 1" xmlns="http://www.w3.org/2000/svg" viewBox="0 0 29.33 29.33"><defs><style>.cls-1{fill:#fff;}</style></defs><title>user</title><path class="cls-1" d="M15,.67a14.67,14.67,0,1,0,9.4,25.91,14.79,14.79,0,0,0,1.29-1.23A14.64,14.64,0,0,0,15,.67Zm0,27.7A13,13,0,0,1,6.29,25a9.7,9.7,0,0,1,17.53,0A13,13,0,0,1,15,28.37Zm0-10.56a5.86,5.86,0,1,1,5.86-5.86A5.87,5.87,0,0,1,15,17.81Zm10,5.92a11.41,11.41,0,0,0-6.29-5.31,7.46,7.46,0,1,0-7.37,0,11.41,11.41,0,0,0-6.23,5.32,13,13,0,1,1,19.89,0Z" transform="translate(-0.37 -0.67)"/></svg>